<svg width="100" height="100" viewBox="0 0 100 100" fill="none" xmlns="http://www.w3.org/2000/svg">
<path d="M22.8125 74.1667C21.4236 73.4028 20.3472 72.3785 19.5833 71.0938C18.8194 69.809 18.4375 68.3681 18.4375 66.7708V46.7708L8.4375 41.25C7.67361 40.8333 7.11806 40.3125 6.77083 39.6875C6.42361 39.0625 6.25 38.3681 6.25 37.6042C6.25 36.8403 6.42361 36.1458 6.77083 35.5208C7.11806 34.8958 7.67361 34.375 8.4375 33.9583L43.6458 14.7917C44.2708 14.4444 44.9132 14.184 45.5729 14.0104C46.2326 13.8368 46.9097 13.75 47.6042 13.75C48.2986 13.75 48.9757 13.8368 49.6354 14.0104C50.2951 14.184 50.9375 14.4444 51.5625 14.7917L91.25 36.4583C91.9444 36.8056 92.4826 37.309 92.8646 37.9688C93.2465 38.6285 93.4375 39.3403 93.4375 40.1042V66.7708C93.4375 67.9514 93.0382 68.941 92.2396 69.7396C91.441 70.5382 90.4514 70.9375 89.2708 70.9375C88.0903 70.9375 87.1007 70.5382 86.3021 69.7396C85.5035 68.941 85.1042 67.9514 85.1042 66.7708V42.1875L76.7708 46.7708V66.7708C76.7708 68.3681 76.3889 69.809 75.625 71.0938C74.8611 72.3785 73.7847 73.4028 72.3958 74.1667L51.5625 85.4167C50.9375 85.7639 50.2951 86.0243 49.6354 86.1979C48.9757 86.3715 48.2986 86.4583 47.6042 86.4583C46.9097 86.4583 46.2326 86.3715 45.5729 86.1979C44.9132 86.0243 44.2708 85.7639 43.6458 85.4167L22.8125 74.1667ZM47.6042 53.0208L76.1458 37.6042L47.6042 22.1875L19.0625 37.6042L47.6042 53.0208ZM47.6042 78.125L68.4375 66.875V51.1458L51.6667 60.4167C51.0417 60.7639 50.3819 61.0243 49.6875 61.1979C48.9931 61.3715 48.2986 61.4583 47.6042 61.4583C46.9097 61.4583 46.2153 61.3715 45.5208 61.1979C44.8264 61.0243 44.1667 60.7639 43.5417 60.4167L26.7708 51.1458V66.875L47.6042 78.125Z" fill="#0E0637"/>
<path d="M47.6042 53.0208L76.1458 37.6042L47.6042 22.1875L19.0625 37.6042L47.6042 53.0208Z" fill="#0E0637" fill-opacity="0.4"/>
<path d="M47.6042 78.125L68.4375 66.875V51.1458L51.6667 60.4167C51.0417 60.7639 50.3819 61.0243 49.6875 61.1979C48.9931 61.3715 48.2986 61.4583 47.6042 61.4583C46.9097 61.4583 46.2153 61.3715 45.5208 61.1979C44.8264 61.0243 44.1667 60.7639 43.5417 60.4167L26.7708 51.1458V66.875L47.6042 78.125Z" fill="#0E0637" fill-opacity="0.4"/>
</svg>
