<svg width="100" height="100" viewBox="0 0 100 100" fill="none" xmlns="http://www.w3.org/2000/svg">
<path d="M49.6354 24.6354C48.0034 26.2674 46.0416 27.0834 43.7499 27.0834C42.8472 27.0834 42.0138 26.9618 41.2499 26.7188C40.486 26.4757 39.7222 26.0764 38.9583 25.5209C37.2916 26.0764 35.9548 27.0834 34.9479 28.5417C33.9409 30 33.4374 31.5972 33.4374 33.3334H82.7083C83.9583 33.3334 84.9826 33.8195 85.7812 34.7917C86.5798 35.7639 86.9097 36.875 86.7708 38.125L83.8541 58.9584C83.7152 60 83.2465 60.8507 82.4479 61.5104C81.6492 62.1702 80.7291 62.5 79.6874 62.5H62.9166V54.1667H69.849H76.1458C76.493 52.0834 76.7881 50 77.0312 47.9167C77.2742 45.8334 77.5694 43.75 77.9166 41.6667H22.0833C22.4305 43.75 22.7256 45.8334 22.9687 47.9167C23.2117 50 23.5069 52.0834 23.8541 54.1667H30.1509H37.0833V62.5H20.3124C19.2708 62.5 18.3506 62.1702 17.552 61.5104C16.7534 60.8507 16.2847 60 16.1458 58.9584L13.2291 38.125C13.0902 36.875 13.4201 35.7639 14.2187 34.7917C15.0173 33.8195 16.0416 33.3334 17.2916 33.3334H24.9999C24.9999 29.9306 25.9374 26.8403 27.8124 24.0625C29.6874 21.2847 32.2222 19.2361 35.4166 17.9167C35.6249 15.7639 36.5277 13.9757 38.1249 12.5521C39.7222 11.1285 41.5972 10.4167 43.7499 10.4167C46.0416 10.4167 48.0034 11.2327 49.6354 12.8646C51.2673 14.4965 52.0833 16.4584 52.0833 18.75C52.0833 21.0417 51.2673 23.0035 49.6354 24.6354ZM40.7291 79.1667H59.2708L61.6666 54.1667H38.3333L40.7291 79.1667ZM62.9166 87.5H37.0833C35.9722 87.5 35.052 87.1528 34.3229 86.4584C33.5937 85.7639 33.1597 84.8611 33.0208 83.75L30.2083 55C30.1761 54.7183 30.1569 54.4405 30.1509 54.1667C30.1046 52.0784 30.8181 50.2207 32.2916 48.5938C33.9583 46.7535 36.0069 45.8334 38.4374 45.8334H61.5624C63.993 45.8334 66.0416 46.7535 67.7083 48.5938C69.1817 50.2207 69.8953 52.0784 69.849 54.1667C69.8429 54.4405 69.8238 54.7183 69.7916 55L66.9791 83.75C66.8402 84.8611 66.4062 85.7639 65.677 86.4584C64.9479 87.1528 64.0277 87.5 62.9166 87.5Z" fill="#0E0637"/>
<path d="M69.849 54.1667H76.1458C76.493 52.0834 76.7881 50 77.0312 47.9167C77.2742 45.8334 77.5694 43.75 77.9166 41.6667H22.0833C22.4305 43.75 22.7256 45.8334 22.9687 47.9167C23.2117 50 23.5069 52.0834 23.8541 54.1667H30.1509C30.1046 52.0784 30.8181 50.2207 32.2916 48.5938C33.9583 46.7535 36.0069 45.8334 38.4374 45.8334H61.5624C63.993 45.8334 66.0416 46.7535 67.7083 48.5938C69.1817 50.2207 69.8953 52.0784 69.849 54.1667Z" fill="#0E0637" fill-opacity="0.4"/>
<path d="M40.7291 79.1667H59.2708L61.6666 54.1667H38.3333L40.7291 79.1667Z" fill="#0E0637" fill-opacity="0.4"/>
</svg>
