<svg width="100" height="100" viewBox="0 0 100 100" fill="none" xmlns="http://www.w3.org/2000/svg">
<path d="M54.1666 48.3333L66.6666 60.8333C67.4305 61.5972 67.8124 62.5695 67.8124 63.75C67.8124 64.9306 67.4305 65.9028 66.6666 66.6667C65.9027 67.4306 64.9305 67.8125 63.7499 67.8125C62.5694 67.8125 61.5971 67.4306 60.8333 66.6667L47.0833 52.9167C46.6666 52.5 46.3541 52.0312 46.1458 51.5104C45.9374 50.9896 45.8333 50.4514 45.8333 49.8958V33.3333C45.8333 32.1528 46.2326 31.1632 47.0312 30.3646C47.8298 29.566 48.8194 29.1667 49.9999 29.1667C51.1805 29.1667 52.1701 29.566 52.9687 30.3646C53.7673 31.1632 54.1666 32.1528 54.1666 33.3333V48.3333ZM59.8437 19.3229C58.8367 18.316 58.3333 17.0833 58.3333 15.625C58.3333 14.1667 58.8367 12.934 59.8437 11.9271C60.8506 10.9201 62.0833 10.4167 63.5416 10.4167C64.9999 10.4167 66.2326 10.9201 67.2395 11.9271C68.2464 12.934 68.7499 14.1667 68.7499 15.625C68.7499 17.0833 68.2464 18.316 67.2395 19.3229C66.2326 20.3299 64.9999 20.8333 63.5416 20.8333C62.0833 20.8333 60.8506 20.3299 59.8437 19.3229ZM59.8437 88.0729C58.8367 87.066 58.3333 85.8333 58.3333 84.375C58.3333 82.9167 58.8367 81.684 59.8437 80.6771C60.8506 79.6702 62.0833 79.1667 63.5416 79.1667C64.9999 79.1667 66.2326 79.6702 67.2395 80.6771C68.2464 81.684 68.7499 82.9167 68.7499 84.375C68.7499 85.8333 68.2464 87.066 67.2395 88.0729C66.2326 89.0799 64.9999 89.5833 63.5416 89.5833C62.0833 89.5833 60.8506 89.0799 59.8437 88.0729ZM76.5103 33.9063C75.5034 32.8993 74.9999 31.6667 74.9999 30.2083C74.9999 28.75 75.5034 27.5174 76.5103 26.5104C77.5173 25.5035 78.7499 25 80.2083 25C81.6666 25 82.8992 25.5035 83.9062 26.5104C84.9131 27.5174 85.4166 28.75 85.4166 30.2083C85.4166 31.6667 84.9131 32.8993 83.9062 33.9063C82.8992 34.9132 81.6666 35.4167 80.2083 35.4167C78.7499 35.4167 77.5173 34.9132 76.5103 33.9063ZM76.5103 73.4896C75.5034 72.4827 74.9999 71.25 74.9999 69.7917C74.9999 68.3333 75.5034 67.1007 76.5103 66.0938C77.5173 65.0868 78.7499 64.5833 80.2083 64.5833C81.6666 64.5833 82.8992 65.0868 83.9062 66.0938C84.9131 67.1007 85.4166 68.3333 85.4166 69.7917C85.4166 71.25 84.9131 72.4827 83.9062 73.4896C82.8992 74.4965 81.6666 75 80.2083 75C78.7499 75 77.5173 74.4965 76.5103 73.4896ZM82.7603 53.6979C81.7534 52.691 81.2499 51.4583 81.2499 50C81.2499 48.5417 81.7534 47.309 82.7603 46.3021C83.7673 45.2951 84.9999 44.7917 86.4583 44.7917C87.9166 44.7917 89.1492 45.2951 90.1562 46.3021C91.1631 47.309 91.6666 48.5417 91.6666 50C91.6666 51.4583 91.1631 52.691 90.1562 53.6979C89.1492 54.7049 87.9166 55.2083 86.4583 55.2083C84.9999 55.2083 83.7673 54.7049 82.7603 53.6979ZM19.2187 21.875C26.4756 14.0278 35.3819 9.58333 45.9374 8.54167C47.0485 8.40278 48.0034 8.73264 48.802 9.53125C49.6006 10.3299 49.9999 11.3194 49.9999 12.5C49.9999 13.6111 49.6353 14.5833 48.9062 15.4167C48.177 16.25 47.2569 16.7361 46.1458 16.875C37.743 17.8472 30.7291 21.4583 25.1041 27.7083C19.4791 33.9583 16.6666 41.3889 16.6666 50C16.6666 58.6806 19.4791 66.1285 25.1041 72.3438C30.7291 78.559 37.743 82.1528 46.1458 83.125C47.2569 83.2639 48.177 83.75 48.9062 84.5833C49.6353 85.4167 49.9999 86.3889 49.9999 87.5C49.9999 88.6806 49.6006 89.6701 48.802 90.4688C48.0034 91.2674 47.0485 91.5972 45.9374 91.4583C35.3124 90.4167 26.3888 85.9722 19.1666 78.125C11.9444 70.2778 8.33325 60.9028 8.33325 50C8.33325 39.0972 11.9617 29.7222 19.2187 21.875Z" fill="#0E0637"/>
</svg>
