<svg width="100" height="100" viewBox="0 0 100 100" fill="none" xmlns="http://www.w3.org/2000/svg">
<path d="M25.0001 91.6666C22.7084 91.6666 20.7466 90.8507 19.1147 89.2187C17.4827 87.5868 16.6667 85.625 16.6667 83.3333V33.3333C16.6667 29.4444 17.8473 26.0416 20.2084 23.125C22.5695 20.2083 25.5556 18.2639 29.1667 17.2916V12.5C29.1667 11.3194 29.5661 10.3298 30.3647 9.53123C31.1633 8.73262 32.1529 8.33331 33.3334 8.33331H37.5001C38.6806 8.33331 39.6702 8.73262 40.4688 9.53123C41.2674 10.3298 41.6667 11.3194 41.6667 12.5V16.6666H58.3334V12.5C58.3334 11.3194 58.7327 10.3298 59.5313 9.53123C60.3299 8.73262 61.3195 8.33331 62.5001 8.33331H66.6667C67.8473 8.33331 68.8369 8.73262 69.6355 9.53123C70.4341 10.3298 70.8334 11.3194 70.8334 12.5V17.2916C74.4445 18.2639 77.4306 20.2083 79.7917 23.125C82.1529 26.0416 83.3334 29.4444 83.3334 33.3333V83.3333C83.3334 85.625 82.5174 87.5868 80.8855 89.2187C79.2536 90.8507 77.2918 91.6666 75.0001 91.6666H25.0001ZM25.0001 83.3333H75.0001V33.3333C75.0001 31.0416 74.1841 29.0798 72.5522 27.4479C70.9202 25.816 68.9584 25 66.6667 25H33.3334C31.0417 25 29.0799 25.816 27.448 27.4479C25.8161 29.0798 25.0001 31.0416 25.0001 33.3333V83.3333ZM60.4167 58.3333V62.5C60.4167 63.6805 60.8161 64.6701 61.6147 65.4687C62.4133 66.2673 63.4029 66.6666 64.5834 66.6666C65.764 66.6666 66.7536 66.2673 67.5522 65.4687C68.3508 64.6701 68.7501 63.6805 68.7501 62.5V54.1666C68.7501 52.9861 68.3508 51.9965 67.5522 51.1979C66.7536 50.3993 65.764 50 64.5834 50H35.4167C34.2362 50 33.2466 50.3993 32.448 51.1979C31.6494 51.9965 31.2501 52.9861 31.2501 54.1666C31.2501 55.3472 31.6494 56.3368 32.448 57.1354C33.2466 57.934 34.2362 58.3333 35.4167 58.3333H60.4167Z" fill="#0E0637"/>
<path fill-rule="evenodd" clip-rule="evenodd" d="M25.0001 83.3333H75.0001V33.3333C75.0001 31.0416 74.1841 29.0798 72.5522 27.4479C70.9202 25.816 68.9584 25 66.6667 25H33.3334C31.0417 25 29.0799 25.816 27.448 27.4479C25.8161 29.0798 25.0001 31.0416 25.0001 33.3333V83.3333ZM60.4167 62.5V58.3333H35.4167C34.2362 58.3333 33.2466 57.934 32.448 57.1354C31.6494 56.3368 31.2501 55.3472 31.2501 54.1666C31.2501 52.9861 31.6494 51.9965 32.448 51.1979C33.2466 50.3993 34.2362 50 35.4167 50H64.5834C65.764 50 66.7536 50.3993 67.5522 51.1979C68.3508 51.9965 68.7501 52.9861 68.7501 54.1666V62.5C68.7501 63.6805 68.3508 64.6701 67.5522 65.4687C66.7536 66.2673 65.764 66.6666 64.5834 66.6666C63.4029 66.6666 62.4133 66.2673 61.6147 65.4687C60.8161 64.6701 60.4167 63.6805 60.4167 62.5Z" fill="#0E0637" fill-opacity="0.4"/>
</svg>
