<svg width="100" height="100" viewBox="0 0 100 100" fill="none" xmlns="http://www.w3.org/2000/svg">
<path d="M66.6666 35L29.5833 72.0833C28.8194 72.8472 27.8472 73.2291 26.6666 73.2291C25.4861 73.2291 24.5138 72.8472 23.75 72.0833C22.9861 71.3194 22.6041 70.3472 22.6041 69.1666C22.6041 67.9861 22.9861 67.0139 23.75 66.25L60.8333 29.1666H29.1666C27.9861 29.1666 26.9965 28.7673 26.1979 27.9687C25.3993 27.1701 25 26.1805 25 25C25 23.8194 25.3993 22.8298 26.1979 22.0312C26.9965 21.2326 27.9861 20.8333 29.1666 20.8333H70.8333C72.0138 20.8333 73.0034 21.2326 73.802 22.0312C74.6007 22.8298 75 23.8194 75 25V66.6666C75 67.8472 74.6007 68.8368 73.802 69.6354C73.0034 70.434 72.0138 70.8333 70.8333 70.8333C69.6527 70.8333 68.6632 70.434 67.8645 69.6354C67.0659 68.8368 66.6666 67.8472 66.6666 66.6666V35Z" fill="#040500"/>
</svg>
