<svg width="100" height="100" viewBox="0 0 100 100" fill="none" xmlns="http://www.w3.org/2000/svg">
<path d="M45.8333 67.3959V20.8334C45.8333 19.6528 46.2326 18.6632 47.0313 17.8646C47.8299 17.066 48.8194 16.6667 50 16.6667C51.1806 16.6667 52.1701 17.066 52.9688 17.8646C53.7674 18.6632 54.1667 19.6528 54.1667 20.8334V67.3959L74.5833 46.9792C75.4167 46.1459 76.3889 45.7465 77.5 45.7813C78.6111 45.816 79.5833 46.25 80.4167 47.0834C81.1806 47.9167 81.5799 48.8889 81.6146 50C81.6493 51.1111 81.25 52.0834 80.4167 52.9167L52.9167 80.4167C52.5 80.8334 52.0486 81.1285 51.5625 81.3021C51.0764 81.4757 50.5556 81.5625 50 81.5625C49.4444 81.5625 48.9236 81.4757 48.4375 81.3021C47.9514 81.1285 47.5 80.8334 47.0833 80.4167L19.5833 52.9167C18.8194 52.1528 18.4375 51.1979 18.4375 50.0521C18.4375 48.9063 18.8194 47.9167 19.5833 47.0834C20.4167 46.25 21.4063 45.8334 22.5521 45.8334C23.6979 45.8334 24.6875 46.25 25.5208 47.0834L45.8333 67.3959Z" fill="#040500"/>
</svg>
