<svg width="100" height="100" viewBox="0 0 100 100" fill="none" xmlns="http://www.w3.org/2000/svg">
<path d="M41.6667 56.6667L66.25 32.0833C67.0139 31.3194 67.9862 30.9375 69.1667 30.9375C70.3473 30.9375 71.3195 31.3194 72.0834 32.0833C72.8473 32.8472 73.2292 33.8194 73.2292 35C73.2292 36.1806 72.8473 37.1528 72.0834 37.9167L44.5834 65.4167C43.75 66.25 42.7778 66.6667 41.6667 66.6667C40.5556 66.6667 39.5834 66.25 38.75 65.4167L27.9167 54.5833C27.1528 53.8194 26.7709 52.8472 26.7709 51.6667C26.7709 50.4861 27.1528 49.5139 27.9167 48.75C28.6806 47.9861 29.6528 47.6042 30.8334 47.6042C32.0139 47.6042 32.9862 47.9861 33.75 48.75L41.6667 56.6667Z" fill="#040500"/>
</svg>
