<svg width="100" height="100" viewBox="0 0 100 100" fill="none" xmlns="http://www.w3.org/2000/svg">
<path d="M50 39.6875L19.375 70.3125C18.3333 71.3542 17.1007 71.8576 15.677 71.8229C14.2534 71.7882 13.0208 71.25 11.9791 70.2083C10.9375 69.1667 10.4166 67.934 10.4166 66.5104C10.4166 65.0868 10.9375 63.8542 11.9791 62.8125L44.0625 30.8333C44.8958 30 45.8333 29.375 46.875 28.9583C47.9166 28.5417 48.9583 28.3333 50 28.3333C51.0416 28.3333 52.0833 28.5417 53.125 28.9583C54.1666 29.375 55.1041 30 55.9375 30.8333L88.0208 62.9167C89.0625 63.9583 89.5659 65.1736 89.5312 66.5625C89.4965 67.9514 88.9583 69.1667 87.9166 70.2083C86.875 71.25 85.6423 71.7708 84.2187 71.7708C82.7951 71.7708 81.5625 71.25 80.5208 70.2083L50 39.6875Z" fill="#040500"/>
</svg>
