<svg width="100" height="100" viewBox="0 0 100 100" fill="none" xmlns="http://www.w3.org/2000/svg">
<path d="M49.9999 60.3125L80.6249 29.6875C81.6666 28.6458 82.8992 28.1424 84.3228 28.1771C85.7464 28.2118 86.9791 28.75 88.0208 29.7917C89.0624 30.8333 89.5833 32.066 89.5833 33.4896C89.5833 34.9132 89.0624 36.1458 88.0208 37.1875L55.9374 69.1667C55.1041 70 54.1666 70.625 53.1249 71.0417C52.0833 71.4583 51.0416 71.6667 49.9999 71.6667C48.9582 71.6667 47.9166 71.4583 46.8749 71.0417C45.8332 70.625 44.8957 70 44.0624 69.1667L11.9791 37.0833C10.9374 36.0417 10.4339 34.8264 10.4687 33.4375C10.5034 32.0486 11.0416 30.8333 12.0833 29.7917C13.1249 28.75 14.3576 28.2292 15.7812 28.2292C17.2048 28.2292 18.4374 28.75 19.4791 29.7917L49.9999 60.3125Z" fill="#040500"/>
</svg>
