<svg width="100" height="100" viewBox="0 0 100 100" fill="none" xmlns="http://www.w3.org/2000/svg">
<path d="M79.4791 91.25L72.9166 84.7917C69.5139 87.0139 65.8854 88.7153 62.0312 89.8959C58.1771 91.0764 54.1666 91.6667 50 91.6667C44.2361 91.6667 38.8194 90.573 33.75 88.3855C28.6805 86.198 24.2708 83.2292 20.5208 79.4792C16.7708 75.7292 13.8021 71.3195 11.6146 66.25C9.42706 61.1806 8.33331 55.7639 8.33331 50C8.33331 45.8334 8.92359 41.823 10.1041 37.9688C11.2847 34.1146 12.9861 30.4862 15.2083 27.0834L8.64581 20.5209C7.81248 19.6875 7.39581 18.698 7.39581 17.5521C7.39581 16.4063 7.81248 15.4167 8.64581 14.5834C9.47915 13.75 10.4687 13.3334 11.6146 13.3334C12.7604 13.3334 13.75 13.75 14.5833 14.5834L85.4166 85.4167C86.25 86.25 86.6666 87.2223 86.6666 88.3334C86.6666 89.4445 86.25 90.4167 85.4166 91.25C84.5833 92.0834 83.5937 92.5 82.4479 92.5C81.3021 92.5 80.3125 92.0834 79.4791 91.25ZM50 83.3334C52.9861 83.3334 55.8854 82.9514 58.6979 82.1875C61.5104 81.4237 64.2361 80.2778 66.875 78.75L21.25 33.125C19.7222 35.7639 18.5764 38.4896 17.8125 41.3021C17.0486 44.1146 16.6666 47.0139 16.6666 50C16.6666 59.2362 19.9132 67.1007 26.4062 73.5938C32.8993 80.0869 40.7639 83.3334 50 83.3334ZM50 16.6667C47.7083 16.6667 45.4687 16.8924 43.2812 17.3438C41.0937 17.7952 38.9583 18.4723 36.875 19.375C35.7639 19.8612 34.6528 19.9306 33.5416 19.5834C32.4305 19.2362 31.5972 18.5764 31.0416 17.6042C30.4861 16.632 30.3646 15.5903 30.6771 14.4792C30.9896 13.3681 31.6666 12.5695 32.7083 12.0834C35.4166 10.8334 38.2118 9.89587 41.0937 9.27087C43.9757 8.64587 46.9444 8.33337 50 8.33337C55.7639 8.33337 61.1805 9.42712 66.25 11.6146C71.3194 13.8021 75.7291 16.7709 79.4791 20.5209C83.2291 24.2709 86.1979 28.6806 88.3854 33.75C90.5729 38.8195 91.6666 44.2362 91.6666 50C91.6666 53.0556 91.3541 56.0243 90.7291 58.9063C90.1041 61.7882 89.1666 64.5834 87.9166 67.2917C87.4305 68.3334 86.6319 69.0105 85.5208 69.323C84.4097 69.6355 83.368 69.5139 82.3958 68.9584C81.4236 68.4028 80.7639 67.5695 80.4166 66.4584C80.0694 65.3473 80.1389 64.2362 80.625 63.125C81.5278 61.0417 82.2048 58.9063 82.6562 56.7188C83.1076 54.5313 83.3333 52.2917 83.3333 50C83.3333 40.7639 80.0868 32.8993 73.5937 26.4063C67.1007 19.9132 59.2361 16.6667 50 16.6667Z" fill="#040500"/>
</svg>
