<svg width="100" height="100" viewBox="0 0 100 100" fill="none" xmlns="http://www.w3.org/2000/svg">
<path d="M20.1042 50.1042L36.25 66.25C37.0139 67.0139 37.3958 67.9861 37.3958 69.1667C37.3958 70.3472 37.0139 71.3195 36.25 72.0834C35.4861 72.8472 34.5139 73.2292 33.3333 73.2292C32.1528 73.2292 31.1805 72.8472 30.4167 72.0834L11.25 52.9167C10.8333 52.5 10.5382 52.0486 10.3646 51.5625C10.191 51.0764 10.1042 50.5556 10.1042 50C10.1042 49.4445 10.191 48.9236 10.3646 48.4375C10.5382 47.9514 10.8333 47.5 11.25 47.0834L30.4167 27.9167C31.25 27.0834 32.2396 26.6667 33.3854 26.6667C34.5312 26.6667 35.5208 27.0834 36.3542 27.9167C37.1875 28.75 37.6042 29.7396 37.6042 30.8854C37.6042 32.0313 37.1875 33.0209 36.3542 33.8542L20.1042 50.1042ZM79.8958 49.8959L63.75 33.75C62.9861 32.9861 62.6042 32.0139 62.6042 30.8334C62.6042 29.6528 62.9861 28.6806 63.75 27.9167C64.5139 27.1528 65.4861 26.7709 66.6667 26.7709C67.8472 26.7709 68.8194 27.1528 69.5833 27.9167L88.75 47.0834C89.1667 47.5 89.4618 47.9514 89.6354 48.4375C89.809 48.9236 89.8958 49.4445 89.8958 50C89.8958 50.5556 89.809 51.0764 89.6354 51.5625C89.4618 52.0486 89.1667 52.5 88.75 52.9167L69.5833 72.0834C68.75 72.9167 67.7778 73.316 66.6667 73.2813C65.5555 73.2465 64.5833 72.8125 63.75 71.9792C62.9167 71.1459 62.5 70.1563 62.5 69.0104C62.5 67.8646 62.9167 66.875 63.75 66.0417L79.8958 49.8959Z" fill="#040500"/>
</svg>
