<svg width="100" height="100" viewBox="0 0 100 100" fill="none" xmlns="http://www.w3.org/2000/svg">
<path d="M8.33329 29.1667C8.33329 25.6945 9.54857 22.7431 11.9791 20.3125C14.4097 17.882 17.3611 16.6667 20.8333 16.6667C23.5416 16.6667 25.9722 17.4479 28.125 19.0104C30.2777 20.5729 31.7708 22.5695 32.6041 25H67.3958C68.2291 22.5695 69.7222 20.5729 71.875 19.0104C74.0277 17.4479 76.4583 16.6667 79.1666 16.6667C82.6388 16.6667 85.5902 17.882 88.0208 20.3125C90.4513 22.7431 91.6666 25.6945 91.6666 29.1667C91.6666 32.6389 90.4513 35.5903 88.0208 38.0209C85.5902 40.4514 82.6388 41.6667 79.1666 41.6667C76.4583 41.6667 74.0277 40.8854 71.875 39.3229C69.7222 37.7604 68.2291 35.7639 67.3958 33.3334H50C51.3194 35.0695 52.3437 36.9965 53.0729 39.1146C53.802 41.2327 54.1666 43.4722 54.1666 45.8334V54.1667C54.1666 57.6389 55.3819 60.5903 57.8125 63.0209C60.243 65.4514 63.1944 66.6667 66.6666 66.6667H67.3958C68.2291 64.2361 69.7222 62.2396 71.875 60.6771C74.0277 59.1146 76.4583 58.3334 79.1666 58.3334C82.6388 58.3334 85.5902 59.5486 88.0208 61.9792C90.4513 64.4097 91.6666 67.3611 91.6666 70.8334C91.6666 74.3056 90.4513 77.257 88.0208 79.6875C85.5902 82.1181 82.6388 83.3334 79.1666 83.3334C76.4583 83.3334 74.0277 82.5521 71.875 80.9896C69.7222 79.4271 68.2291 77.4306 67.3958 75H66.6666C60.9027 75 55.9895 72.9688 51.927 68.9063C47.8645 64.8438 45.8333 59.9306 45.8333 54.1667V45.8334C45.8333 42.3611 44.618 39.4097 42.1875 36.9792C39.7569 34.5486 36.8055 33.3334 33.3333 33.3334H32.6041C31.7708 35.7639 30.2777 37.7604 28.125 39.3229C25.9722 40.8854 23.5416 41.6667 20.8333 41.6667C17.3611 41.6667 14.4097 40.4514 11.9791 38.0209C9.54857 35.5903 8.33329 32.6389 8.33329 29.1667ZM75 29.1667C75 30.3472 75.3993 31.3368 76.1979 32.1354C76.9965 32.934 77.9861 33.3334 79.1666 33.3334C80.3472 33.3334 81.3368 32.934 82.1354 32.1354C82.934 31.3368 83.3333 30.3472 83.3333 29.1667C83.3333 27.9861 82.934 26.9965 82.1354 26.1979C81.3368 25.3993 80.3472 25 79.1666 25C77.9861 25 76.9965 25.3993 76.1979 26.1979C75.3993 26.9965 75 27.9861 75 29.1667ZM75 70.8334C75 72.0139 75.3993 73.0035 76.1979 73.8021C76.9965 74.6007 77.9861 75 79.1666 75C80.3472 75 81.3368 74.6007 82.1354 73.8021C82.934 73.0035 83.3333 72.0139 83.3333 70.8334C83.3333 69.6528 82.934 68.6632 82.1354 67.8646C81.3368 67.066 80.3472 66.6667 79.1666 66.6667C77.9861 66.6667 76.9965 67.066 76.1979 67.8646C75.3993 68.6632 75 69.6528 75 70.8334ZM16.6666 29.1667C16.6666 30.3472 17.0659 31.3368 17.8645 32.1354C18.6631 32.934 19.6527 33.3334 20.8333 33.3334C22.0138 33.3334 23.0034 32.934 23.802 32.1354C24.6006 31.3368 25 30.3472 25 29.1667C25 27.9861 24.6006 26.9965 23.802 26.1979C23.0034 25.3993 22.0138 25 20.8333 25C19.6527 25 18.6631 25.3993 17.8645 26.1979C17.0659 26.9965 16.6666 27.9861 16.6666 29.1667Z" fill="#040500"/>
</svg>
