<svg width="100" height="100" viewBox="0 0 100 100" fill="none" xmlns="http://www.w3.org/2000/svg">
<path d="M41.6667 79.1667V70.8333H16.6667C14.375 70.8333 12.4132 70.0174 10.7813 68.3854C9.14935 66.7535 8.33337 64.7917 8.33337 62.5V20.8333C8.33337 18.5417 9.14935 16.5799 10.7813 14.9479C12.4132 13.316 14.375 12.5 16.6667 12.5H83.3334C85.625 12.5 87.5869 13.316 89.2188 14.9479C90.8507 16.5799 91.6667 18.5417 91.6667 20.8333V62.5C91.6667 64.7917 90.8507 66.7535 89.2188 68.3854C87.5869 70.0174 85.625 70.8333 83.3334 70.8333H58.3334V79.1667H62.5C63.6806 79.1667 64.6702 79.566 65.4688 80.3646C66.2674 81.1632 66.6667 82.1528 66.6667 83.3333C66.6667 84.5139 66.2674 85.5035 65.4688 86.3021C64.6702 87.1007 63.6806 87.5 62.5 87.5H37.5C36.3195 87.5 35.3299 87.1007 34.5313 86.3021C33.7327 85.5035 33.3334 84.5139 33.3334 83.3333C33.3334 82.1528 33.7327 81.1632 34.5313 80.3646C35.3299 79.566 36.3195 79.1667 37.5 79.1667H41.6667ZM16.6667 62.5H83.3334V20.8333H16.6667V62.5Z" fill="#040500"/>
</svg>
