<svg width="100" height="100" viewBox="0 0 100 100" fill="none" xmlns="http://www.w3.org/2000/svg">
<path d="M62.8646 79.8438C59.8438 76.8229 58.3334 73.125 58.3334 68.75C58.3334 64.375 59.8438 60.6771 62.8646 57.6562C65.8854 54.6354 69.5834 53.125 73.9584 53.125C78.3334 53.125 82.0313 54.6354 85.0521 57.6562C88.0729 60.6771 89.5834 64.375 89.5834 68.75C89.5834 73.125 88.0729 76.8229 85.0521 79.8438C82.0313 82.8646 78.3334 84.375 73.9584 84.375C69.5834 84.375 65.8854 82.8646 62.8646 79.8438ZM79.1146 73.9062C80.5382 72.4826 81.25 70.7639 81.25 68.75C81.25 66.7361 80.5382 65.0174 79.1146 63.5938C77.691 62.1701 75.9722 61.4583 73.9584 61.4583C71.9445 61.4583 70.2257 62.1701 68.8021 63.5938C67.3785 65.0174 66.6667 66.7361 66.6667 68.75C66.6667 70.7639 67.3785 72.4826 68.8021 73.9062C70.2257 75.3299 71.9445 76.0417 73.9584 76.0417C75.9722 76.0417 77.691 75.3299 79.1146 73.9062ZM45.8334 72.9167H20.8334C19.6528 72.9167 18.6632 72.5174 17.8646 71.7188C17.066 70.9201 16.6667 69.9306 16.6667 68.75C16.6667 67.5694 17.066 66.5799 17.8646 65.7812C18.6632 64.9826 19.6528 64.5833 20.8334 64.5833H45.8334C47.0139 64.5833 48.0035 64.9826 48.8021 65.7812C49.6007 66.5799 50 67.5694 50 68.75C50 69.9306 49.6007 70.9201 48.8021 71.7188C48.0035 72.5174 47.0139 72.9167 45.8334 72.9167ZM14.9479 42.3438C11.9271 39.3229 10.4167 35.625 10.4167 31.25C10.4167 26.875 11.9271 23.1771 14.9479 20.1562C17.9688 17.1354 21.6667 15.625 26.0417 15.625C30.4167 15.625 34.1146 17.1354 37.1354 20.1562C40.1563 23.1771 41.6667 26.875 41.6667 31.25C41.6667 35.625 40.1563 39.3229 37.1354 42.3438C34.1146 45.3646 30.4167 46.875 26.0417 46.875C21.6667 46.875 17.9688 45.3646 14.9479 42.3438ZM31.1979 36.4062C32.6215 34.9826 33.3334 33.2639 33.3334 31.25C33.3334 29.2361 32.6215 27.5174 31.1979 26.0938C29.7743 24.6701 28.0556 23.9583 26.0417 23.9583C24.0278 23.9583 22.309 24.6701 20.8854 26.0938C19.4618 27.5174 18.75 29.2361 18.75 31.25C18.75 33.2639 19.4618 34.9826 20.8854 36.4062C22.309 37.8299 24.0278 38.5417 26.0417 38.5417C28.0556 38.5417 29.7743 37.8299 31.1979 36.4062ZM79.1667 35.4167H54.1667C52.9861 35.4167 51.9965 35.0174 51.1979 34.2188C50.3993 33.4201 50 32.4306 50 31.25C50 30.0694 50.3993 29.0799 51.1979 28.2812C51.9965 27.4826 52.9861 27.0833 54.1667 27.0833H79.1667C80.3472 27.0833 81.3368 27.4826 82.1354 28.2812C82.934 29.0799 83.3334 30.0694 83.3334 31.25C83.3334 32.4306 82.934 33.4201 82.1354 34.2188C81.3368 35.0174 80.3472 35.4167 79.1667 35.4167Z" fill="#040500"/>
</svg>
