<svg width="100" height="100" viewBox="0 0 100 100" fill="none" xmlns="http://www.w3.org/2000/svg">
<path d="M38.6979 86.3021C37.8993 85.5035 37.5 84.5139 37.5 83.3334V28.4375L33.75 32.0834C32.9861 32.8472 32.0139 33.2292 30.8333 33.2292C29.6528 33.2292 28.6806 32.8472 27.9167 32.0834C27.0833 31.25 26.684 30.2604 26.7188 29.1146C26.7535 27.9688 27.1528 27.0139 27.9167 26.25L38.75 15.4167C39.5833 14.5834 40.5556 14.1667 41.6667 14.1667C42.7778 14.1667 43.75 14.5834 44.5833 15.4167L55.4167 26.25C56.25 27.0834 56.6493 28.0556 56.6146 29.1667C56.5799 30.2778 56.1806 31.25 55.4167 32.0834C54.5833 32.9167 53.6111 33.3507 52.5 33.3854C51.3889 33.4202 50.4167 33.0209 49.5833 32.1875L45.8333 28.4375V55.625C48.2639 53.4722 51.0069 51.9271 54.0625 50.9896C57.1181 50.0521 60.1736 49.5834 63.2292 49.5834C63.9931 49.5834 64.7222 49.6181 65.4167 49.6875C66.1111 49.757 66.7708 49.8611 67.3958 50L63.75 46.25C62.9861 45.4861 62.6042 44.5139 62.6042 43.3334C62.6042 42.1528 62.9861 41.1806 63.75 40.4167C64.5833 39.5834 65.5729 39.184 66.7188 39.2188C67.8646 39.2535 68.8194 39.6528 69.5833 40.4167L80.4167 51.25C81.25 52.0834 81.6667 53.0556 81.6667 54.1667C81.6667 55.2778 81.25 56.25 80.4167 57.0834L69.5833 67.9167C68.8194 68.6806 67.8472 69.0625 66.6667 69.0625C65.4861 69.0625 64.5139 68.6806 63.75 67.9167C62.9167 67.0834 62.5 66.0938 62.5 64.9479C62.5 63.8021 62.8819 62.8472 63.6458 62.0834L67.3958 58.3334C66.6319 58.1945 65.8681 58.0729 65.1042 57.9688C64.3403 57.8646 63.5764 57.8125 62.8125 57.8125C59.0625 57.8125 55.6076 58.8716 52.4479 60.9896C49.2882 63.1077 47.0833 66.3889 45.8333 70.8334V83.3334C45.8333 84.5139 45.434 85.5035 44.6354 86.3021C43.8368 87.1007 42.8472 87.5 41.6667 87.5C40.4861 87.5 39.4965 87.1007 38.6979 86.3021Z" fill="#040500"/>
</svg>
