<svg width="100" height="100" viewBox="0 0 100 100" fill="none" xmlns="http://www.w3.org/2000/svg">
<path d="M48.4375 64.6354C47.9513 64.4618 47.5 64.1667 47.0833 63.75L32.0833 48.75C31.25 47.9167 30.8507 46.9445 30.8854 45.8334C30.9201 44.7222 31.3194 43.75 32.0833 42.9167C32.9166 42.0834 33.9062 41.6493 35.052 41.6146C36.1979 41.5799 37.1875 41.9792 38.0208 42.8125L45.8333 50.625V20.8334C45.8333 19.6528 46.2326 18.6632 47.0312 17.8646C47.8298 17.066 48.8194 16.6667 50 16.6667C51.1805 16.6667 52.1701 17.066 52.9687 17.8646C53.7673 18.6632 54.1666 19.6528 54.1666 20.8334V50.625L61.9791 42.8125C62.8125 41.9792 63.802 41.5799 64.9479 41.6146C66.0937 41.6493 67.0833 42.0834 67.9166 42.9167C68.6805 43.75 69.0798 44.7222 69.1145 45.8334C69.1493 46.9445 68.75 47.9167 67.9166 48.75L52.9166 63.75C52.5 64.1667 52.0486 64.4618 51.5625 64.6354C51.0763 64.809 50.5555 64.8959 50 64.8959C49.4444 64.8959 48.9236 64.809 48.4375 64.6354ZM25 83.3334C22.7083 83.3334 20.7465 82.5174 19.1145 80.8854C17.4826 79.2535 16.6666 77.2917 16.6666 75V66.6667C16.6666 65.4861 17.0659 64.4965 17.8645 63.6979C18.6632 62.8993 19.6527 62.5 20.8333 62.5C22.0138 62.5 23.0034 62.8993 23.802 63.6979C24.6007 64.4965 25 65.4861 25 66.6667V75H75V66.6667C75 65.4861 75.3993 64.4965 76.1979 63.6979C76.9965 62.8993 77.9861 62.5 79.1666 62.5C80.3472 62.5 81.3368 62.8993 82.1354 63.6979C82.934 64.4965 83.3333 65.4861 83.3333 66.6667V75C83.3333 77.2917 82.5173 79.2535 80.8854 80.8854C79.2534 82.5174 77.2916 83.3334 75 83.3334H25Z" fill="#040500"/>
</svg>
