<svg width="100" height="100" viewBox="0 0 100 100" fill="none" xmlns="http://www.w3.org/2000/svg">
<path d="M41.6667 66.6667C37.7084 66.6667 34.2709 67.8472 31.3542 70.2084C28.4375 72.5695 26.4931 75.5556 25.5209 79.1667C25.1736 80.3472 24.6007 81.3368 23.8021 82.1354C23.0035 82.934 22.0139 83.3334 20.8334 83.3334C19.6528 83.3334 18.6806 82.9167 17.9167 82.0834C17.1528 81.25 16.875 80.2778 17.0834 79.1667C17.8472 74.8611 19.5486 71.0417 22.1875 67.7084C24.8264 64.375 28.0903 61.9097 31.9792 60.3125L30.9375 50H20.8334C19.6528 50 18.6632 49.6007 17.8646 48.8021C17.066 48.0035 16.6667 47.0139 16.6667 45.8334V25H8.33335C7.1528 25 6.16321 24.6007 5.3646 23.8021C4.56599 23.0035 4.16669 22.0139 4.16669 20.8334C4.16669 19.6528 4.56599 18.6632 5.3646 17.8646C6.16321 17.066 7.1528 16.6667 8.33335 16.6667H33.3334C34.5139 16.6667 35.5035 17.066 36.3021 17.8646C37.1007 18.6632 37.5 19.6528 37.5 20.8334C37.5 22.0139 37.1007 23.0035 36.3021 23.8021C35.5035 24.6007 34.5139 25 33.3334 25H25V41.6667H30L29.6875 37.9167C29.5486 36.6667 29.8785 35.5903 30.6771 34.6875C31.4757 33.7847 32.5 33.3334 33.75 33.3334H66.25C67.5 33.3334 68.5243 33.7847 69.3229 34.6875C70.1215 35.5903 70.4514 36.6667 70.3125 37.9167L70 41.6667H75V25H66.6667C65.4861 25 64.4965 24.6007 63.6979 23.8021C62.8993 23.0035 62.5 22.0139 62.5 20.8334C62.5 19.6528 62.8993 18.6632 63.6979 17.8646C64.4965 17.066 65.4861 16.6667 66.6667 16.6667H91.7709C92.9514 16.6667 93.941 17.066 94.7396 17.8646C95.5382 18.6632 95.9375 19.6528 95.9375 20.8334C95.9375 22.0139 95.5382 23.0035 94.7396 23.8021C93.941 24.6007 92.9514 25 91.7709 25H83.4375V45.8334C83.4375 47.0139 83.0382 48.0035 82.2396 48.8021C81.441 49.6007 80.4514 50 79.2709 50H69.1667L68.125 60.3125C72.0139 61.9097 75.2778 64.375 77.9167 67.7084C80.5556 71.0417 82.257 74.8611 83.0209 79.1667C83.2292 80.2778 82.934 81.25 82.1354 82.0834C81.3368 82.9167 80.3472 83.3334 79.1667 83.3334C77.9861 83.3334 76.9965 82.934 76.1979 82.1354C75.3993 81.3368 74.8264 80.3472 74.4792 79.1667C73.507 75.5556 71.5452 72.5695 68.5938 70.2084C65.6424 67.8472 62.2222 66.6667 58.3334 66.6667H41.6667ZM40.1042 58.3334H59.7917L61.5625 41.6667H38.3334L40.1042 58.3334Z" fill="#040500"/>
</svg>
