<svg width="100" height="100" viewBox="0 0 100 100" fill="none" xmlns="http://www.w3.org/2000/svg">
<path d="M20.8333 45.8333C18.5417 45.8333 16.5799 45.0174 14.9479 43.3854C13.316 41.7535 12.5 39.7917 12.5 37.5V20.8333C12.5 18.5417 13.316 16.5799 14.9479 14.9479C16.5799 13.316 18.5417 12.5 20.8333 12.5H37.5C39.7917 12.5 41.7535 13.316 43.3854 14.9479C45.0174 16.5799 45.8333 18.5417 45.8333 20.8333V37.5C45.8333 39.7917 45.0174 41.7535 43.3854 43.3854C41.7535 45.0174 39.7917 45.8333 37.5 45.8333H20.8333ZM20.8333 87.5C18.5417 87.5 16.5799 86.684 14.9479 85.0521C13.316 83.4201 12.5 81.4583 12.5 79.1667V62.5C12.5 60.2083 13.316 58.2465 14.9479 56.6146C16.5799 54.9826 18.5417 54.1667 20.8333 54.1667H37.5C39.7917 54.1667 41.7535 54.9826 43.3854 56.6146C45.0174 58.2465 45.8333 60.2083 45.8333 62.5V79.1667C45.8333 81.4583 45.0174 83.4201 43.3854 85.0521C41.7535 86.684 39.7917 87.5 37.5 87.5H20.8333ZM62.5 45.8333C60.2083 45.8333 58.2465 45.0174 56.6146 43.3854C54.9826 41.7535 54.1667 39.7917 54.1667 37.5V20.8333C54.1667 18.5417 54.9826 16.5799 56.6146 14.9479C58.2465 13.316 60.2083 12.5 62.5 12.5H79.1667C81.4583 12.5 83.4201 13.316 85.0521 14.9479C86.684 16.5799 87.5 18.5417 87.5 20.8333V37.5C87.5 39.7917 86.684 41.7535 85.0521 43.3854C83.4201 45.0174 81.4583 45.8333 79.1667 45.8333H62.5ZM62.5 87.5C60.2083 87.5 58.2465 86.684 56.6146 85.0521C54.9826 83.4201 54.1667 81.4583 54.1667 79.1667V62.5C54.1667 60.2083 54.9826 58.2465 56.6146 56.6146C58.2465 54.9826 60.2083 54.1667 62.5 54.1667H79.1667C81.4583 54.1667 83.4201 54.9826 85.0521 56.6146C86.684 58.2465 87.5 60.2083 87.5 62.5V79.1667C87.5 81.4583 86.684 83.4201 85.0521 85.0521C83.4201 86.684 81.4583 87.5 79.1667 87.5H62.5ZM20.8333 37.5H37.5V20.8333H20.8333V37.5ZM62.5 37.5H79.1667V20.8333H62.5V37.5ZM62.5 79.1667H79.1667V62.5H62.5V79.1667ZM20.8333 79.1667H37.5V62.5H20.8333V79.1667Z" fill="#040500"/>
</svg>
