<svg width="100" height="100" viewBox="0 0 100 100" fill="none" xmlns="http://www.w3.org/2000/svg">
<path d="M63.2292 34.6875C65.2431 36.7014 66.7187 38.9931 67.6562 41.5625C68.5937 44.1319 68.9236 46.7708 68.6458 49.4792C68.6458 50.5208 68.2639 51.4062 67.5 52.1354C66.7361 52.8646 65.8333 53.2292 64.7917 53.2292C63.75 53.2292 62.8646 52.8646 62.1354 52.1354C61.4062 51.4062 61.0417 50.5208 61.0417 49.4792C61.3889 47.6736 61.2847 45.9375 60.7292 44.2708C60.1736 42.6042 59.3056 41.1806 58.125 40C56.9444 38.8194 55.5208 37.9167 53.8542 37.2917C52.1875 36.6667 50.4167 36.5278 48.5417 36.875C47.5 36.875 46.6146 36.4931 45.8854 35.7292C45.1562 34.9653 44.7917 34.0625 44.7917 33.0208C44.7917 31.9792 45.1562 31.0938 45.8854 30.3646C46.6146 29.6354 47.5 29.2708 48.5417 29.2708C51.1806 28.9931 53.7847 29.3229 56.3542 30.2604C58.9236 31.1979 61.2153 32.6736 63.2292 34.6875ZM50 25C48.6806 25 47.3958 25.0521 46.1458 25.1563C44.8958 25.2604 43.6458 25.4514 42.3958 25.7292C41.2153 25.9375 40.1562 25.7639 39.2187 25.2083C38.2812 24.6528 37.6389 23.8194 37.2917 22.7083C36.9444 21.5972 37.066 20.5208 37.6562 19.4792C38.2465 18.4375 39.0972 17.8125 40.2083 17.6042C41.8056 17.2569 43.4201 17.0139 45.0521 16.875C46.684 16.7361 48.3333 16.6667 50 16.6667C59.5139 16.6667 68.2118 19.1667 76.0938 24.1667C83.9757 29.1667 90 35.9028 94.1667 44.375C94.4444 44.9306 94.6528 45.5035 94.7917 46.0938C94.9306 46.684 95 47.2917 95 47.9167C95 48.5417 94.9479 49.1493 94.8438 49.7396C94.7396 50.3299 94.5486 50.9028 94.2708 51.4583C93.0208 54.2361 91.4757 56.8403 89.6354 59.2708C87.7951 61.7014 85.7639 63.9236 83.5417 65.9375C82.7083 66.7014 81.7361 67.0139 80.625 66.875C79.5139 66.7361 78.6111 66.1806 77.9167 65.2083C77.2222 64.2361 76.9271 63.1771 77.0312 62.0313C77.1354 60.8854 77.6042 59.9306 78.4375 59.1667C80.1042 57.5694 81.6319 55.8333 83.0208 53.9583C84.4097 52.0833 85.625 50.0694 86.6667 47.9167C83.1944 40.9028 78.1771 35.3299 71.6146 31.1979C65.0521 27.066 57.8472 25 50 25ZM50 79.1667C40.6944 79.1667 32.1875 76.6493 24.4792 71.6146C16.7708 66.5799 10.6944 59.9653 6.24999 51.7708C5.90277 51.2153 5.64236 50.6076 5.46874 49.9479C5.29513 49.2882 5.20833 48.6111 5.20833 47.9167C5.20833 47.2222 5.27777 46.5625 5.41666 45.9375C5.55555 45.3125 5.79861 44.6875 6.14583 44.0625C7.53472 41.2847 9.1493 38.6285 10.9896 36.0938C12.8299 33.559 14.9306 31.25 17.2917 29.1667L8.64583 20.4167C7.88194 19.5833 7.51736 18.5938 7.55208 17.4479C7.5868 16.3021 7.98611 15.3472 8.74999 14.5833C9.51388 13.8194 10.4861 13.4375 11.6667 13.4375C12.8472 13.4375 13.8194 13.8194 14.5833 14.5833L85.4167 85.4167C86.1806 86.1806 86.5799 87.1354 86.6146 88.2812C86.6493 89.4271 86.25 90.4167 85.4167 91.25C84.6528 92.0139 83.6806 92.3958 82.5 92.3958C81.3194 92.3958 80.3472 92.0139 79.5833 91.25L65 76.875C62.5694 77.6389 60.1042 78.2118 57.6042 78.5938C55.1042 78.9757 52.5694 79.1667 50 79.1667ZM23.125 35C21.1111 36.8056 19.2708 38.7847 17.6042 40.9375C15.9375 43.0903 14.5139 45.4167 13.3333 47.9167C16.8056 54.9306 21.8229 60.5035 28.3854 64.6354C34.9479 68.7674 42.1528 70.8333 50 70.8333C51.3889 70.8333 52.7431 70.7465 54.0625 70.5729C55.3819 70.3993 56.7361 70.2083 58.125 70L54.375 66.0417C53.6111 66.25 52.8819 66.4063 52.1875 66.5104C51.4931 66.6146 50.7639 66.6667 50 66.6667C44.7917 66.6667 40.3646 64.8438 36.7187 61.1979C33.0729 57.5521 31.25 53.125 31.25 47.9167C31.25 47.1528 31.3021 46.4236 31.4062 45.7292C31.5104 45.0347 31.6667 44.3056 31.875 43.5417L23.125 35Z" fill="#040500"/>
</svg>
