<svg width="100" height="100" viewBox="0 0 100 100" fill="none" xmlns="http://www.w3.org/2000/svg">
<path d="M25 91.6666C22.7083 91.6666 20.7465 90.8507 19.1145 89.2187C17.4826 87.5868 16.6666 85.625 16.6666 83.3333V16.6666C16.6666 14.375 17.4826 12.4132 19.1145 10.7812C20.7465 9.14929 22.7083 8.33331 25 8.33331H54.8958C56.0069 8.33331 57.0659 8.54165 58.0729 8.95831C59.0798 9.37498 59.9652 9.96526 60.7291 10.7291L80.9375 30.9375C81.7013 31.7014 82.2916 32.5868 82.7083 33.5937C83.125 34.6007 83.3333 35.6597 83.3333 36.7708V83.3333C83.3333 85.625 82.5173 87.5868 80.8854 89.2187C79.2534 90.8507 77.2916 91.6666 75 91.6666H25ZM54.1666 33.3333V16.6666H25V83.3333H75V37.5H58.3333C57.1527 37.5 56.1632 37.1007 55.3645 36.3021C54.5659 35.5035 54.1666 34.5139 54.1666 33.3333Z" fill="#040500"/>
</svg>
