<svg width="100" height="100" viewBox="0 0 100 100" fill="none" xmlns="http://www.w3.org/2000/svg">
<path d="M45.8333 75C44.6528 75 43.6632 74.6007 42.8646 73.8021C42.066 73.0035 41.6667 72.0139 41.6667 70.8333C41.6667 69.6528 42.066 68.6632 42.8646 67.8646C43.6632 67.066 44.6528 66.6667 45.8333 66.6667H54.1667C55.3472 66.6667 56.3368 67.066 57.1354 67.8646C57.934 68.6632 58.3333 69.6528 58.3333 70.8333C58.3333 72.0139 57.934 73.0035 57.1354 73.8021C56.3368 74.6007 55.3472 75 54.1667 75H45.8333ZM29.1667 54.1667C27.9861 54.1667 26.9965 53.7674 26.1979 52.9688C25.3993 52.1701 25 51.1806 25 50C25 48.8194 25.3993 47.8299 26.1979 47.0312C26.9965 46.2326 27.9861 45.8333 29.1667 45.8333H70.8333C72.0139 45.8333 73.0035 46.2326 73.8021 47.0312C74.6007 47.8299 75 48.8194 75 50C75 51.1806 74.6007 52.1701 73.8021 52.9688C73.0035 53.7674 72.0139 54.1667 70.8333 54.1667H29.1667ZM16.6667 33.3333C15.4861 33.3333 14.4965 32.934 13.6979 32.1354C12.8993 31.3368 12.5 30.3472 12.5 29.1667C12.5 27.9861 12.8993 26.9965 13.6979 26.1979C14.4965 25.3993 15.4861 25 16.6667 25H83.3333C84.5139 25 85.5035 25.3993 86.3021 26.1979C87.1007 26.9965 87.5 27.9861 87.5 29.1667C87.5 30.3472 87.1007 31.3368 86.3021 32.1354C85.5035 32.934 84.5139 33.3333 83.3333 33.3333H16.6667Z" fill="#040500"/>
</svg>
