<svg width="100" height="100" viewBox="0 0 100 100" fill="none" xmlns="http://www.w3.org/2000/svg">
<path d="M45.8334 61.7709V75C45.8334 76.1806 46.2327 77.1702 47.0313 77.9688C47.8299 78.7674 48.8195 79.1667 50 79.1667C51.1806 79.1667 52.1702 78.7674 52.9688 77.9688C53.7674 77.1702 54.1667 76.1806 54.1667 75V61.7709L57.9167 65.5209C58.3334 65.9375 58.8021 66.25 59.3229 66.4584C59.8438 66.6667 60.3646 66.7535 60.8854 66.7188C61.4063 66.6841 61.9097 66.5625 62.3959 66.3542C62.882 66.1459 63.3334 65.8334 63.75 65.4167C64.5139 64.5834 64.9132 63.6112 64.9479 62.5C64.9827 61.3889 64.5834 60.4167 63.75 59.5834L52.9167 48.75C52.5 48.3334 52.0486 48.0382 51.5625 47.8646C51.0764 47.691 50.5556 47.6042 50 47.6042C49.4445 47.6042 48.9236 47.691 48.4375 47.8646C47.9514 48.0382 47.5 48.3334 47.0834 48.75L36.25 59.5834C35.4167 60.4167 35.0174 61.3889 35.0521 62.5C35.0868 63.6112 35.5209 64.5834 36.3542 65.4167C37.1875 66.1806 38.1597 66.5799 39.2709 66.6146C40.382 66.6493 41.3542 66.25 42.1875 65.4167L45.8334 61.7709ZM25 91.6667C22.7084 91.6667 20.7465 90.8507 19.1146 89.2188C17.4827 87.5869 16.6667 85.625 16.6667 83.3334V16.6667C16.6667 14.375 17.4827 12.4132 19.1146 10.7813C20.7465 9.14935 22.7084 8.33337 25 8.33337H54.8959C56.007 8.33337 57.066 8.54171 58.0729 8.95837C59.0799 9.37504 59.9653 9.96532 60.7292 10.7292L80.9375 30.9375C81.7014 31.7014 82.2917 32.5868 82.7084 33.5938C83.125 34.6007 83.3334 35.6598 83.3334 36.7709V83.3334C83.3334 85.625 82.5174 87.5869 80.8854 89.2188C79.2535 90.8507 77.2917 91.6667 75 91.6667H25ZM54.1667 33.3334V16.6667H25V83.3334H75V37.5H58.3334C57.1528 37.5 56.1632 37.1007 55.3646 36.3021C54.566 35.5035 54.1667 34.5139 54.1667 33.3334Z" fill="#040500"/>
</svg>
