<svg width="100" height="100" viewBox="0 0 100 100" fill="none" xmlns="http://www.w3.org/2000/svg">
<path d="M12.5 87.5C10.2083 87.5 8.24649 86.684 6.61454 85.0521C4.9826 83.4201 4.16663 81.4583 4.16663 79.1666V29.1666C4.16663 27.9861 4.56593 26.9965 5.36454 26.1979C6.16315 25.3993 7.15274 25 8.33329 25C9.51385 25 10.5034 25.3993 11.302 26.1979C12.1007 26.9965 12.5 27.9861 12.5 29.1666V79.1666H79.1666C80.3472 79.1666 81.3368 79.5659 82.1354 80.3646C82.934 81.1632 83.3333 82.1528 83.3333 83.3333C83.3333 84.5139 82.934 85.5034 82.1354 86.3021C81.3368 87.1007 80.3472 87.5 79.1666 87.5H12.5ZM29.1666 70.8333C26.875 70.8333 24.9132 70.0173 23.2812 68.3854C21.6493 66.7535 20.8333 64.7916 20.8333 62.5V16.6666C20.8333 14.375 21.6493 12.4132 23.2812 10.7812C24.9132 9.14929 26.875 8.33331 29.1666 8.33331H46.5625C47.6736 8.33331 48.7326 8.54165 49.7395 8.95831C50.7465 9.37498 51.6319 9.96526 52.3958 10.7291L58.3333 16.6666H87.5C89.7916 16.6666 91.7534 17.4826 93.3854 19.1146C95.0173 20.7465 95.8333 22.7083 95.8333 25V62.5C95.8333 64.7916 95.0173 66.7535 93.3854 68.3854C91.7534 70.0173 89.7916 70.8333 87.5 70.8333H29.1666ZM29.1666 62.5H87.5V25H54.8958L46.5625 16.6666H29.1666V62.5Z" fill="#040500"/>
</svg>
