<svg width="100" height="100" viewBox="0 0 100 100" fill="none" xmlns="http://www.w3.org/2000/svg">
<path d="M41.6667 91.6666C39.375 91.6666 37.4132 90.8507 35.7813 89.2187C34.1493 87.5868 33.3334 85.625 33.3334 83.3333V79.1666C33.3334 77.9861 33.7327 76.9965 34.5313 76.1979C35.3299 75.3993 36.3195 75 37.5 75C38.6806 75 39.6702 75.3993 40.4688 76.1979C41.2674 76.9965 41.6667 77.9861 41.6667 79.1666V83.3333H83.3334V41.6666H79.1667C77.9862 41.6666 76.9966 41.2673 76.198 40.4687C75.3994 39.6701 75 38.6805 75 37.5C75 36.3194 75.3994 35.3298 76.198 34.5312C76.9966 33.7326 77.9862 33.3333 79.1667 33.3333H83.3334C85.625 33.3333 87.5869 34.1493 89.2188 35.7812C90.8507 37.4132 91.6667 39.375 91.6667 41.6666V83.3333C91.6667 85.625 90.8507 87.5868 89.2188 89.2187C87.5869 90.8507 85.625 91.6666 83.3334 91.6666H41.6667ZM16.823 58.1771C11.1632 52.5173 8.33337 45.625 8.33337 37.5C8.33337 29.375 11.1632 22.4826 16.823 16.8229C22.4827 11.1632 29.375 8.33331 37.5 8.33331C45.625 8.33331 52.5174 11.1632 58.1771 16.8229C63.8368 22.4826 66.6667 29.375 66.6667 37.5C66.6667 45.625 63.8368 52.5173 58.1771 58.1771C52.5174 63.8368 45.625 66.6666 37.5 66.6666C29.375 66.6666 22.4827 63.8368 16.823 58.1771ZM52.2396 52.2396C56.3021 48.1771 58.3334 43.2639 58.3334 37.5C58.3334 31.7361 56.3021 26.8229 52.2396 22.7604C48.1771 18.6979 43.2639 16.6666 37.5 16.6666C31.7362 16.6666 26.823 18.6979 22.7605 22.7604C18.698 26.8229 16.6667 31.7361 16.6667 37.5C16.6667 43.2639 18.698 48.1771 22.7605 52.2396C26.823 56.3021 31.7362 58.3333 37.5 58.3333C43.2639 58.3333 48.1771 56.3021 52.2396 52.2396Z" fill="#040500"/>
</svg>
