<svg width="100" height="100" viewBox="0 0 100 100" fill="none" xmlns="http://www.w3.org/2000/svg">
<path d="M33.8542 88.3854C28.7848 86.1979 24.3577 83.2118 20.573 79.4271C16.7882 75.6423 13.8021 71.2153 11.6146 66.1458C9.42712 61.0764 8.33337 55.6771 8.33337 49.9479C8.33337 44.2187 9.42712 38.8368 11.6146 33.8021C13.8021 28.7673 16.7882 24.3576 20.573 20.5729C24.3577 16.7882 28.7848 13.8021 33.8542 11.6146C38.9237 9.42706 44.323 8.33331 50.0521 8.33331C55.7813 8.33331 61.1632 9.42706 66.198 11.6146C71.2327 13.8021 75.6424 16.7882 79.4271 20.5729C83.2119 24.3576 86.198 28.7673 88.3855 33.8021C90.573 38.8368 91.6667 44.2187 91.6667 49.9479C91.6667 55.6771 90.573 61.0764 88.3855 66.1458C86.198 71.2153 83.2119 75.6423 79.4271 79.4271C75.6424 83.2118 71.2327 86.1979 66.198 88.3854C61.1632 90.5729 55.7813 91.6666 50.0521 91.6666C44.323 91.6666 38.9237 90.5729 33.8542 88.3854ZM50 83.125C51.8056 80.625 53.3681 78.0208 54.6875 75.3125C56.007 72.6041 57.0834 69.7222 57.9167 66.6666H42.0834C42.9167 69.7222 43.9931 72.6041 45.3125 75.3125C46.632 78.0208 48.1945 80.625 50 83.125ZM39.1667 81.4583C37.9167 79.1666 36.823 76.7882 35.8855 74.3229C34.948 71.8576 34.1667 69.3055 33.5417 66.6666H21.25C23.2639 70.1389 25.7813 73.1597 28.8021 75.7291C31.823 78.2986 35.2778 80.2083 39.1667 81.4583ZM60.8334 81.4583C64.7223 80.2083 68.1771 78.2986 71.198 75.7291C74.2188 73.1597 76.7362 70.1389 78.75 66.6666H66.4584C65.8334 69.3055 65.0521 71.8576 64.1146 74.3229C63.1771 76.7882 62.0834 79.1666 60.8334 81.4583ZM17.7084 58.3333H31.875C31.6667 56.9444 31.5105 55.5729 31.4063 54.2187C31.3021 52.8646 31.25 51.4583 31.25 50C31.25 48.5416 31.3021 47.1354 31.4063 45.7812C31.5105 44.4271 31.6667 43.0555 31.875 41.6666H17.7084C17.3612 43.0555 17.1007 44.4271 16.9271 45.7812C16.7535 47.1354 16.6667 48.5416 16.6667 50C16.6667 51.4583 16.7535 52.8646 16.9271 54.2187C17.1007 55.5729 17.3612 56.9444 17.7084 58.3333ZM40.2084 58.3333H59.7917C60 56.9444 60.1563 55.5729 60.2605 54.2187C60.3646 52.8646 60.4167 51.4583 60.4167 50C60.4167 48.5416 60.3646 47.1354 60.2605 45.7812C60.1563 44.4271 60 43.0555 59.7917 41.6666H40.2084C40 43.0555 39.8438 44.4271 39.7396 45.7812C39.6355 47.1354 39.5834 48.5416 39.5834 50C39.5834 51.4583 39.6355 52.8646 39.7396 54.2187C39.8438 55.5729 40 56.9444 40.2084 58.3333ZM68.125 58.3333H82.2917C82.6389 56.9444 82.8994 55.5729 83.073 54.2187C83.2466 52.8646 83.3334 51.4583 83.3334 50C83.3334 48.5416 83.2466 47.1354 83.073 45.7812C82.8994 44.4271 82.6389 43.0555 82.2917 41.6666H68.125C68.3334 43.0555 68.4896 44.4271 68.5938 45.7812C68.698 47.1354 68.75 48.5416 68.75 50C68.75 51.4583 68.698 52.8646 68.5938 54.2187C68.4896 55.5729 68.3334 56.9444 68.125 58.3333ZM66.4584 33.3333H78.75C76.7362 29.8611 74.2188 26.8403 71.198 24.2708C68.1771 21.7014 64.7223 19.7916 60.8334 18.5416C62.0834 20.8333 63.1771 23.2118 64.1146 25.6771C65.0521 28.1423 65.8334 30.6944 66.4584 33.3333ZM42.0834 33.3333H57.9167C57.0834 30.2778 56.007 27.3958 54.6875 24.6875C53.3681 21.9791 51.8056 19.375 50 16.875C48.1945 19.375 46.632 21.9791 45.3125 24.6875C43.9931 27.3958 42.9167 30.2778 42.0834 33.3333ZM21.25 33.3333H33.5417C34.1667 30.6944 34.948 28.1423 35.8855 25.6771C36.823 23.2118 37.9167 20.8333 39.1667 18.5416C35.2778 19.7916 31.823 21.7014 28.8021 24.2708C25.7813 26.8403 23.2639 29.8611 21.25 33.3333Z" fill="#040500"/>
</svg>
