<svg width="100" height="100" viewBox="0 0 100 100" fill="none" xmlns="http://www.w3.org/2000/svg">
<path d="M20.8333 87.5C18.5417 87.5 16.5799 86.684 14.9479 85.0521C13.316 83.4201 12.5 81.4583 12.5 79.1667V20.8333C12.5 18.5417 13.316 16.5799 14.9479 14.9479C16.5799 13.316 18.5417 12.5 20.8333 12.5H79.1667C81.4583 12.5 83.4201 13.316 85.0521 14.9479C86.684 16.5799 87.5 18.5417 87.5 20.8333V50C87.5 51.1806 87.1007 52.1701 86.3021 52.9688C85.5035 53.7674 84.5139 54.1667 83.3333 54.1667C82.1528 54.1667 81.1632 53.7674 80.3646 52.9688C79.566 52.1701 79.1667 51.1806 79.1667 50V20.8333H20.8333V79.1667H45.8333C47.0139 79.1667 48.0035 79.566 48.8021 80.3646C49.6007 81.1632 50 82.1528 50 83.3333C50 84.5139 49.6007 85.5035 48.8021 86.3021C48.0035 87.1007 47.0139 87.5 45.8333 87.5H20.8333ZM72.2917 79.8958L86.9792 65.1042C87.8125 64.2708 88.8021 63.8542 89.9479 63.8542C91.0938 63.8542 92.0833 64.2708 92.9167 65.1042C93.75 65.9375 94.1667 66.9271 94.1667 68.0729C94.1667 69.2188 93.75 70.2083 92.9167 71.0417L75.2083 88.75C74.375 89.5833 73.3854 90 72.2396 90C71.0938 90 70.1042 89.5833 69.2708 88.75L60.4167 79.8958C59.6528 79.0625 59.2708 78.0729 59.2708 76.9271C59.2708 75.7812 59.6875 74.7917 60.5208 73.9583C61.3542 73.125 62.3264 72.7083 63.4375 72.7083C64.5486 72.7083 65.5208 73.125 66.3542 73.9583L72.2917 79.8958ZM36.3021 52.9688C37.1007 52.1701 37.5 51.1806 37.5 50C37.5 48.8194 37.1007 47.8299 36.3021 47.0312C35.5035 46.2326 34.5139 45.8333 33.3333 45.8333C32.1528 45.8333 31.1632 46.2326 30.3646 47.0312C29.566 47.8299 29.1667 48.8194 29.1667 50C29.1667 51.1806 29.566 52.1701 30.3646 52.9688C31.1632 53.7674 32.1528 54.1667 33.3333 54.1667C34.5139 54.1667 35.5035 53.7674 36.3021 52.9688ZM36.3021 36.3021C37.1007 35.5035 37.5 34.5139 37.5 33.3333C37.5 32.1528 37.1007 31.1632 36.3021 30.3646C35.5035 29.566 34.5139 29.1667 33.3333 29.1667C32.1528 29.1667 31.1632 29.566 30.3646 30.3646C29.566 31.1632 29.1667 32.1528 29.1667 33.3333C29.1667 34.5139 29.566 35.5035 30.3646 36.3021C31.1632 37.1007 32.1528 37.5 33.3333 37.5C34.5139 37.5 35.5035 37.1007 36.3021 36.3021ZM66.6667 54.1667C67.8472 54.1667 68.8368 53.7674 69.6354 52.9688C70.434 52.1701 70.8333 51.1806 70.8333 50C70.8333 48.8194 70.434 47.8299 69.6354 47.0312C68.8368 46.2326 67.8472 45.8333 66.6667 45.8333H50C48.8194 45.8333 47.8299 46.2326 47.0312 47.0312C46.2326 47.8299 45.8333 48.8194 45.8333 50C45.8333 51.1806 46.2326 52.1701 47.0312 52.9688C47.8299 53.7674 48.8194 54.1667 50 54.1667H66.6667ZM66.6667 37.5C67.8472 37.5 68.8368 37.1007 69.6354 36.3021C70.434 35.5035 70.8333 34.5139 70.8333 33.3333C70.8333 32.1528 70.434 31.1632 69.6354 30.3646C68.8368 29.566 67.8472 29.1667 66.6667 29.1667H50C48.8194 29.1667 47.8299 29.566 47.0312 30.3646C46.2326 31.1632 45.8333 32.1528 45.8333 33.3333C45.8333 34.5139 46.2326 35.5035 47.0312 36.3021C47.8299 37.1007 48.8194 37.5 50 37.5H66.6667Z" fill="#040500"/>
</svg>
