<svg width="100" height="100" viewBox="0 0 100 100" fill="none" xmlns="http://www.w3.org/2000/svg">
<path d="M20.8333 87.5C18.5417 87.5 16.5799 86.684 14.9479 85.0521C13.316 83.4201 12.5 81.4583 12.5 79.1667V20.8333C12.5 18.5417 13.316 16.5799 14.9479 14.9479C16.5799 13.316 18.5417 12.5 20.8333 12.5H45.8333C47.0139 12.5 48.0035 12.8993 48.8021 13.6979C49.6007 14.4965 50 15.4861 50 16.6667C50 17.8472 49.6007 18.8368 48.8021 19.6354C48.0035 20.434 47.0139 20.8333 45.8333 20.8333H20.8333V79.1667H45.8333C47.0139 79.1667 48.0035 79.566 48.8021 80.3646C49.6007 81.1632 50 82.1528 50 83.3333C50 84.5139 49.6007 85.5035 48.8021 86.3021C48.0035 87.1007 47.0139 87.5 45.8333 87.5H20.8333ZM71.5625 54.1667H41.6667C40.4861 54.1667 39.4965 53.7674 38.6979 52.9688C37.8993 52.1701 37.5 51.1806 37.5 50C37.5 48.8194 37.8993 47.8299 38.6979 47.0312C39.4965 46.2326 40.4861 45.8333 41.6667 45.8333H71.5625L63.75 38.0208C62.9861 37.2569 62.6042 36.3194 62.6042 35.2083C62.6042 34.0972 62.9861 33.125 63.75 32.2917C64.5139 31.4583 65.4861 31.0243 66.6667 30.9896C67.8472 30.9549 68.8542 31.3542 69.6875 32.1875L84.5833 47.0833C85.4167 47.9167 85.8333 48.8889 85.8333 50C85.8333 51.1111 85.4167 52.0833 84.5833 52.9167L69.6875 67.8125C68.8542 68.6458 67.8646 69.0451 66.7188 69.0104C65.5729 68.9757 64.5833 68.5417 63.75 67.7083C62.9861 66.875 62.6215 65.8854 62.6563 64.7396C62.691 63.5938 63.0903 62.6389 63.8542 61.875L71.5625 54.1667Z" fill="#040500"/>
</svg>
