<svg width="100" height="100" viewBox="0 0 100 100" fill="none" xmlns="http://www.w3.org/2000/svg">
<path d="M16.6667 75C15.4861 75 14.4965 74.6007 13.6979 73.8021C12.8993 73.0035 12.5 72.0139 12.5 70.8333C12.5 69.6528 12.8993 68.6632 13.6979 67.8646C14.4965 67.066 15.4861 66.6667 16.6667 66.6667H58.3333C59.5139 66.6667 60.5035 67.066 61.3021 67.8646C62.1007 68.6632 62.5 69.6528 62.5 70.8333C62.5 72.0139 62.1007 73.0035 61.3021 73.8021C60.5035 74.6007 59.5139 75 58.3333 75H16.6667ZM16.6667 54.1667C15.4861 54.1667 14.4965 53.7674 13.6979 52.9688C12.8993 52.1701 12.5 51.1806 12.5 50C12.5 48.8194 12.8993 47.8299 13.6979 47.0312C14.4965 46.2326 15.4861 45.8333 16.6667 45.8333H83.3333C84.5139 45.8333 85.5035 46.2326 86.3021 47.0312C87.1007 47.8299 87.5 48.8194 87.5 50C87.5 51.1806 87.1007 52.1701 86.3021 52.9688C85.5035 53.7674 84.5139 54.1667 83.3333 54.1667H16.6667ZM16.6667 33.3333C15.4861 33.3333 14.4965 32.934 13.6979 32.1354C12.8993 31.3368 12.5 30.3472 12.5 29.1667C12.5 27.9861 12.8993 26.9965 13.6979 26.1979C14.4965 25.3993 15.4861 25 16.6667 25H83.3333C84.5139 25 85.5035 25.3993 86.3021 26.1979C87.1007 26.9965 87.5 27.9861 87.5 29.1667C87.5 30.3472 87.1007 31.3368 86.3021 32.1354C85.5035 32.934 84.5139 33.3333 83.3333 33.3333H16.6667Z" fill="#040500"/>
</svg>
