<svg width="100" height="100" viewBox="0 0 100 100" fill="none" xmlns="http://www.w3.org/2000/svg">
<path d="M20.8333 87.5C18.5417 87.5 16.5799 86.684 14.9479 85.0521C13.316 83.4201 12.5 81.4583 12.5 79.1667V20.8333C12.5 18.5417 13.316 16.5799 14.9479 14.9479C16.5799 13.316 18.5417 12.5 20.8333 12.5H79.1667C81.4583 12.5 83.4201 13.316 85.0521 14.9479C86.684 16.5799 87.5 18.5417 87.5 20.8333V79.1667C87.5 81.4583 86.684 83.4201 85.0521 85.0521C83.4201 86.684 81.4583 87.5 79.1667 87.5H20.8333ZM20.8333 79.1667H34.6875V65.3125H20.8333V79.1667ZM43.0208 79.1667H56.9792V65.3125H43.0208V79.1667ZM65.3125 79.1667H79.1667V65.3125H65.3125V79.1667ZM20.8333 56.9792H34.6875V43.0208H20.8333V56.9792ZM43.0208 56.9792H56.9792V43.0208H43.0208V56.9792ZM65.3125 56.9792H79.1667V43.0208H65.3125V56.9792ZM20.8333 34.6875H34.6875V20.8333H20.8333V34.6875ZM43.0208 34.6875H56.9792V20.8333H43.0208V34.6875ZM65.3125 34.6875H79.1667V20.8333H65.3125V34.6875Z" fill="#040500"/>
</svg>
