<svg width="100" height="100" viewBox="0 0 100 100" fill="none" xmlns="http://www.w3.org/2000/svg">
<path d="M12.5 54.1667V20.8333C12.5 18.5417 13.316 16.5799 14.9479 14.9479C16.5799 13.316 18.5417 12.5 20.8333 12.5H45.8333V54.1667H12.5ZM54.1667 12.5H79.1667C81.4583 12.5 83.4201 13.316 85.0521 14.9479C86.684 16.5799 87.5 18.5417 87.5 20.8333V37.5H54.1667V12.5ZM54.1667 87.5V45.8333H87.5V79.1667C87.5 81.4583 86.684 83.4201 85.0521 85.0521C83.4201 86.684 81.4583 87.5 79.1667 87.5H54.1667ZM12.5 62.5H45.8333V87.5H20.8333C18.5417 87.5 16.5799 86.684 14.9479 85.0521C13.316 83.4201 12.5 81.4583 12.5 79.1667V62.5ZM20.8333 45.8333H37.5V20.8333H20.8333V45.8333ZM62.5 29.1667H79.1667V20.8333H62.5V29.1667ZM62.5 54.1667V79.1667H79.1667V54.1667H62.5ZM20.8333 70.8333V79.1667H37.5V70.8333H20.8333Z" fill="#040500"/>
</svg>
