<svg width="100" height="100" viewBox="0 0 100 100" fill="none" xmlns="http://www.w3.org/2000/svg">
<path d="M50 68.75C55.2083 68.75 59.6354 66.9271 63.2812 63.2812C66.9271 59.6354 68.75 55.2083 68.75 50C68.75 44.7916 66.9271 40.3646 63.2812 36.7187C59.6354 33.0729 55.2083 31.25 50 31.25C44.7916 31.25 40.3646 33.0729 36.7187 36.7187C33.0729 40.3646 31.25 44.7916 31.25 50C31.25 55.2083 33.0729 59.6354 36.7187 63.2812C40.3646 66.9271 44.7916 68.75 50 68.75ZM47.0312 52.9687C46.2326 52.1701 45.8333 51.1805 45.8333 50C45.8333 48.8194 46.2326 47.8298 47.0312 47.0312C47.8298 46.2326 48.8194 45.8333 50 45.8333C51.1805 45.8333 52.1701 46.2326 52.9687 47.0312C53.7673 47.8298 54.1666 48.8194 54.1666 50C54.1666 51.1805 53.7673 52.1701 52.9687 52.9687C52.1701 53.7673 51.1805 54.1666 50 54.1666C48.8194 54.1666 47.8298 53.7673 47.0312 52.9687ZM50 91.6666C44.2361 91.6666 38.8194 90.5729 33.75 88.3854C28.6805 86.1979 24.2708 83.2291 20.5208 79.4791C16.7708 75.7291 13.8021 71.3194 11.6146 66.25C9.42706 61.1805 8.33331 55.7639 8.33331 50C8.33331 44.2361 9.42706 38.8194 11.6146 33.75C13.8021 28.6805 16.7708 24.2708 20.5208 20.5208C24.2708 16.7708 28.6805 13.8021 33.75 11.6146C38.8194 9.42706 44.2361 8.33331 50 8.33331C55.7639 8.33331 61.1805 9.42706 66.25 11.6146C71.3194 13.8021 75.7291 16.7708 79.4791 20.5208C83.2291 24.2708 86.1979 28.6805 88.3854 33.75C90.5729 38.8194 91.6666 44.2361 91.6666 50C91.6666 55.7639 90.5729 61.1805 88.3854 66.25C86.1979 71.3194 83.2291 75.7291 79.4791 79.4791C75.7291 83.2291 71.3194 86.1979 66.25 88.3854C61.1805 90.5729 55.7639 91.6666 50 91.6666ZM50 83.3333C59.3055 83.3333 67.1875 80.1041 73.6458 73.6458C80.1041 67.1875 83.3333 59.3055 83.3333 50C83.3333 40.6944 80.1041 32.8125 73.6458 26.3541C67.1875 19.8958 59.3055 16.6666 50 16.6666C40.6944 16.6666 32.8125 19.8958 26.3541 26.3541C19.8958 32.8125 16.6666 40.6944 16.6666 50C16.6666 59.3055 19.8958 67.1875 26.3541 73.6458C32.8125 80.1041 40.6944 83.3333 50 83.3333Z" fill="#040500"/>
<path d="M47.0312 52.9687C46.2326 52.1701 45.8333 51.1805 45.8333 50C45.8333 48.8194 46.2326 47.8298 47.0312 47.0312C47.8298 46.2326 48.8194 45.8333 50 45.8333C51.1805 45.8333 52.1701 46.2326 52.9687 47.0312C53.7673 47.8298 54.1666 48.8194 54.1666 50C54.1666 51.1805 53.7673 52.1701 52.9687 52.9687C52.1701 53.7673 51.1805 54.1666 50 54.1666C48.8194 54.1666 47.8298 53.7673 47.0312 52.9687Z" fill="#040500"/>
</svg>
