<svg width="100" height="100" viewBox="0 0 100 100" fill="none" xmlns="http://www.w3.org/2000/svg">
<path d="M45.1042 61.7708C48.3681 58.5069 50 54.5833 50 50C50 45.4167 48.3681 41.4931 45.1042 38.2292C41.8403 34.9653 37.9167 33.3333 33.3334 33.3333C28.75 33.3333 24.8264 34.9653 21.5625 38.2292C18.2987 41.4931 16.6667 45.4167 16.6667 50C16.6667 54.5833 18.2987 58.5069 21.5625 61.7708C24.8264 65.0347 28.75 66.6667 33.3334 66.6667C37.9167 66.6667 41.8403 65.0347 45.1042 61.7708ZM33.3334 75C26.3889 75 20.4862 72.5694 15.625 67.7083C10.7639 62.8472 8.33337 56.9444 8.33337 50C8.33337 43.0556 10.7639 37.1528 15.625 32.2917C20.4862 27.4306 26.3889 25 33.3334 25C39.5834 25 45.0174 26.9792 49.6355 30.9375C54.2535 34.8958 57.0487 39.8611 58.0209 45.8333H87.5C88.6806 45.8333 89.6702 46.2326 90.4688 47.0312C91.2674 47.8299 91.6667 48.8194 91.6667 50C91.6667 51.1806 91.2674 52.1701 90.4688 52.9688C89.6702 53.7674 88.6806 54.1667 87.5 54.1667H58.0209C57.0487 60.1389 54.2535 65.1042 49.6355 69.0625C45.0174 73.0208 39.5834 75 33.3334 75Z" fill="#040500"/>
</svg>
