<svg width="100" height="100" viewBox="0 0 100 100" fill="none" xmlns="http://www.w3.org/2000/svg">
<path d="M29.1667 95.8334C26.875 95.8334 24.9132 95.0174 23.2813 93.3854C21.6493 91.7535 20.8334 89.7917 20.8334 87.5V12.5C20.8334 10.2084 21.6493 8.24655 23.2813 6.6146C24.9132 4.98266 26.875 4.16669 29.1667 4.16669H70.8334C73.125 4.16669 75.0868 4.98266 76.7188 6.6146C78.3507 8.24655 79.1667 10.2084 79.1667 12.5V25.4167C80.4167 25.9028 81.4236 26.6667 82.1875 27.7084C82.9514 28.75 83.3334 29.9306 83.3334 31.25V39.5834C83.3334 40.9028 82.9514 42.0834 82.1875 43.125C81.4236 44.1667 80.4167 44.9306 79.1667 45.4167V87.5C79.1667 89.7917 78.3507 91.7535 76.7188 93.3854C75.0868 95.0174 73.125 95.8334 70.8334 95.8334H29.1667ZM29.1667 87.5H70.8334V12.5H29.1667V87.5ZM52.9688 82.1354C53.7674 81.3368 54.1667 80.3472 54.1667 79.1667C54.1667 77.9861 53.7674 76.9965 52.9688 76.1979C52.1702 75.3993 51.1806 75 50 75C48.8195 75 47.8299 75.3993 47.0313 76.1979C46.2327 76.9965 45.8334 77.9861 45.8334 79.1667C45.8334 80.3472 46.2327 81.3368 47.0313 82.1354C47.8299 82.934 48.8195 83.3334 50 83.3334C51.1806 83.3334 52.1702 82.934 52.9688 82.1354Z" fill="#040500"/>
</svg>
