<svg width="100" height="100" viewBox="0 0 100 100" fill="none" xmlns="http://www.w3.org/2000/svg">
<path d="M19.1667 54.5833C19.8611 53.1944 20.8507 52.0833 22.1354 51.25C23.4201 50.4166 24.8611 50 26.4583 50C28.125 50 29.6528 50.434 31.0417 51.302C32.4306 52.1701 33.4375 53.4027 34.0625 55L36.875 61.875C37.0139 62.2916 37.3264 62.4826 37.8125 62.4479C38.2986 62.4132 38.6111 62.1875 38.75 61.7708L47.7083 31.875C48.6806 28.5416 50.5382 25.868 53.2812 23.8541C56.0243 21.8402 59.1319 20.8333 62.6042 20.8333C66.0069 20.8333 69.0451 21.8229 71.7188 23.802C74.3924 25.7812 76.25 28.368 77.2917 31.5625L93.4375 77.8125C93.9236 79.2013 93.7326 80.4687 92.8646 81.6145C91.9965 82.7604 90.8333 83.3333 89.375 83.3333C88.5417 83.3333 87.7778 83.0729 87.0833 82.552C86.3889 82.0312 85.8681 81.3541 85.5208 80.5208L69.375 34.1666C68.8194 32.5694 67.9514 31.3368 66.7708 30.4687C65.5903 29.6007 64.2014 29.1666 62.6042 29.1666C61.0069 29.1666 59.6007 29.618 58.3854 30.5208C57.1701 31.4236 56.2847 32.6736 55.7292 34.2708L46.7708 64.1666C46.1458 66.1111 45.0174 67.7083 43.3854 68.9583C41.7535 70.2083 39.8958 70.8333 37.8125 70.8333C35.9375 70.8333 34.2014 70.3298 32.6042 69.3229C31.0069 68.3159 29.8611 66.9097 29.1667 65.1041L26.3542 58.2291L15.2083 81.0416C14.8611 81.7361 14.3403 82.2916 13.6458 82.7083C12.9514 83.125 12.2222 83.3333 11.4583 83.3333C9.86111 83.3333 8.68055 82.6736 7.91667 81.3541C7.15278 80.0347 7.11805 78.6805 7.8125 77.2916L19.1667 54.5833ZM25 41.6666C21.5278 41.6666 18.5764 40.434 16.1458 37.9687C13.7153 35.5034 12.5 32.5694 12.5 29.1666C12.5 25.6944 13.7153 22.743 16.1458 20.3125C18.5764 17.8819 21.5278 16.6666 25 16.6666C28.4722 16.6666 31.4236 17.8819 33.8542 20.3125C36.2847 22.743 37.5 25.6944 37.5 29.1666C37.5 32.5694 36.2847 35.5034 33.8542 37.9687C31.4236 40.434 28.4722 41.6666 25 41.6666ZM25 33.3333C26.1806 33.3333 27.1701 32.934 27.9688 32.1354C28.7674 31.3368 29.1667 30.3472 29.1667 29.1666C29.1667 27.9861 28.7674 26.9965 27.9688 26.1979C27.1701 25.3993 26.1806 25 25 25C23.8194 25 22.8299 25.3993 22.0312 26.1979C21.2326 26.9965 20.8333 27.9861 20.8333 29.1666C20.8333 30.3472 21.2326 31.3368 22.0312 32.1354C22.8299 32.934 23.8194 33.3333 25 33.3333Z" fill="#040500"/>
</svg>
