<svg width="100" height="100" viewBox="0 0 100 100" fill="none" xmlns="http://www.w3.org/2000/svg">
<path d="M27.2917 68.75L33.3333 58.3333C28.75 58.3333 24.8264 56.7014 21.5625 53.4375C18.2986 50.1736 16.6667 46.25 16.6667 41.6667C16.6667 37.0833 18.2986 33.1597 21.5625 29.8958C24.8264 26.6319 28.75 25 33.3333 25C37.9167 25 41.8403 26.6319 45.1042 29.8958C48.3681 33.1597 50 37.0833 50 41.6667C50 43.2639 49.809 44.7396 49.4271 46.0938C49.0451 47.4479 48.4722 48.75 47.7083 50L34.4792 72.9167C34.132 73.5417 33.6458 74.0451 33.0208 74.4271C32.3958 74.809 31.7014 75 30.9375 75C29.3403 75 28.1424 74.3056 27.3438 72.9167C26.5451 71.5278 26.5278 70.1389 27.2917 68.75ZM64.7917 68.75L70.8333 58.3333C66.25 58.3333 62.3264 56.7014 59.0625 53.4375C55.7986 50.1736 54.1667 46.25 54.1667 41.6667C54.1667 37.0833 55.7986 33.1597 59.0625 29.8958C62.3264 26.6319 66.25 25 70.8333 25C75.4167 25 79.3403 26.6319 82.6042 29.8958C85.8681 33.1597 87.5 37.0833 87.5 41.6667C87.5 43.2639 87.309 44.7396 86.9271 46.0938C86.5452 47.4479 85.9722 48.75 85.2083 50L71.9792 72.9167C71.632 73.5417 71.1458 74.0451 70.5208 74.4271C69.8958 74.809 69.2014 75 68.4375 75C66.8403 75 65.6424 74.3056 64.8438 72.9167C64.0451 71.5278 64.0278 70.1389 64.7917 68.75ZM37.7604 46.0938C38.9757 44.8785 39.5833 43.4028 39.5833 41.6667C39.5833 39.9306 38.9757 38.4549 37.7604 37.2396C36.5451 36.0243 35.0695 35.4167 33.3333 35.4167C31.5972 35.4167 30.1215 36.0243 28.9063 37.2396C27.691 38.4549 27.0833 39.9306 27.0833 41.6667C27.0833 43.4028 27.691 44.8785 28.9063 46.0938C30.1215 47.309 31.5972 47.9167 33.3333 47.9167C35.0695 47.9167 36.5451 47.309 37.7604 46.0938ZM75.2604 46.0938C76.4757 44.8785 77.0833 43.4028 77.0833 41.6667C77.0833 39.9306 76.4757 38.4549 75.2604 37.2396C74.0451 36.0243 72.5695 35.4167 70.8333 35.4167C69.0972 35.4167 67.6215 36.0243 66.4063 37.2396C65.191 38.4549 64.5833 39.9306 64.5833 41.6667C64.5833 43.4028 65.191 44.8785 66.4063 46.0938C67.6215 47.309 69.0972 47.9167 70.8333 47.9167C72.5695 47.9167 74.0451 47.309 75.2604 46.0938Z" fill="#040500"/>
</svg>
