<svg width="100" height="100" viewBox="0 0 100 100" fill="none" xmlns="http://www.w3.org/2000/svg">
<path d="M45.1042 91.6666C43.2292 91.6666 41.6146 91.0416 40.2604 89.7916C38.9063 88.5416 38.0903 87.0139 37.8125 85.2083L36.875 78.3333C35.9722 77.9861 35.1215 77.5694 34.3229 77.0833C33.5243 76.5972 32.7431 76.0764 31.9792 75.5208L25.5208 78.2291C23.7847 78.993 22.0486 79.0625 20.3125 78.4375C18.5764 77.8125 17.2222 76.7014 16.25 75.1041L11.3542 66.5625C10.382 64.9653 10.1042 63.2639 10.5208 61.4583C10.9375 59.6528 11.875 58.1597 13.3333 56.9791L18.8542 52.8125C18.7847 52.3264 18.75 51.8576 18.75 51.4062V48.5937C18.75 48.1423 18.7847 47.6736 18.8542 47.1875L13.3333 43.0208C11.875 41.8403 10.9375 40.3472 10.5208 38.5416C10.1042 36.7361 10.382 35.0347 11.3542 33.4375L16.25 24.8958C17.2222 23.2986 18.5764 22.1875 20.3125 21.5625C22.0486 20.9375 23.7847 21.0069 25.5208 21.7708L31.9792 24.4791C32.7431 23.9236 33.5417 23.4028 34.375 22.9166C35.2083 22.4305 36.0417 22.0139 36.875 21.6666L37.8125 14.7916C38.0903 12.9861 38.9063 11.4583 40.2604 10.2083C41.6146 8.95831 43.2292 8.33331 45.1042 8.33331H54.8958C56.7708 8.33331 58.3854 8.95831 59.7396 10.2083C61.0938 11.4583 61.9097 12.9861 62.1875 14.7916L63.125 21.6666C64.0278 22.0139 64.8785 22.4305 65.6771 22.9166C66.4757 23.4028 67.257 23.9236 68.0208 24.4791L74.4792 21.7708C76.2153 21.0069 77.9514 20.9375 79.6875 21.5625C81.4236 22.1875 82.7778 23.2986 83.75 24.8958L88.6458 33.4375C89.6181 35.0347 89.8958 36.7361 89.4792 38.5416C89.0625 40.3472 88.125 41.8403 86.6667 43.0208L81.1458 47.1875C81.2153 47.6736 81.25 48.1423 81.25 48.5937V51.4062C81.25 51.8576 81.1806 52.3264 81.0417 52.8125L86.5625 56.9791C88.0208 58.1597 88.9583 59.6528 89.375 61.4583C89.7917 63.2639 89.5139 64.9653 88.5417 66.5625L83.5417 75.1041C82.5695 76.7014 81.2153 77.8125 79.4792 78.4375C77.7431 79.0625 76.007 78.993 74.2708 78.2291L68.0208 75.5208C67.257 76.0764 66.4583 76.5972 65.625 77.0833C64.7917 77.5694 63.9583 77.9861 63.125 78.3333L62.1875 85.2083C61.9097 87.0139 61.0938 88.5416 59.7396 89.7916C58.3854 91.0416 56.7708 91.6666 54.8958 91.6666H45.1042ZM45.8333 83.3333H54.0625L55.5208 72.2916C57.6736 71.7361 59.6701 70.9201 61.5104 69.8437C63.3507 68.7673 65.0347 67.4653 66.5625 65.9375L76.875 70.2083L80.9375 63.125L71.9792 56.3541C72.3264 55.3819 72.5695 54.3576 72.7083 53.2812C72.8472 52.2048 72.9167 51.1111 72.9167 50C72.9167 48.8889 72.8472 47.7951 72.7083 46.7187C72.5695 45.6423 72.3264 44.618 71.9792 43.6458L80.9375 36.875L76.875 29.7916L66.5625 34.1666C65.0347 32.5694 63.3507 31.2326 61.5104 30.1562C59.6701 29.0798 57.6736 28.2639 55.5208 27.7083L54.1667 16.6666H45.9375L44.4792 27.7083C42.3264 28.2639 40.3299 29.0798 38.4896 30.1562C36.6493 31.2326 34.9653 32.5347 33.4375 34.0625L23.125 29.7916L19.0625 36.875L28.0208 43.5416C27.6736 44.5833 27.4306 45.625 27.2917 46.6666C27.1528 47.7083 27.0833 48.8194 27.0833 50C27.0833 51.1111 27.1528 52.1875 27.2917 53.2291C27.4306 54.2708 27.6736 55.3125 28.0208 56.3541L19.0625 63.125L23.125 70.2083L33.4375 65.8333C34.9653 67.4305 36.6493 68.7673 38.4896 69.8437C40.3299 70.9201 42.3264 71.7361 44.4792 72.2916L45.8333 83.3333ZM50.2083 64.5833C54.2361 64.5833 57.6736 63.1597 60.5208 60.3125C63.3681 57.4653 64.7917 54.0278 64.7917 50C64.7917 45.9722 63.3681 42.5347 60.5208 39.6875C57.6736 36.8403 54.2361 35.4166 50.2083 35.4166C46.1111 35.4166 42.6563 36.8403 39.8438 39.6875C37.0313 42.5347 35.625 45.9722 35.625 50C35.625 54.0278 37.0313 57.4653 39.8438 60.3125C42.6563 63.1597 46.1111 64.5833 50.2083 64.5833Z" fill="#040500"/>
</svg>
