<svg width="100" height="100" viewBox="0 0 100 100" fill="none" xmlns="http://www.w3.org/2000/svg">
<path d="M36.875 70.1042L50 62.1875L63.125 70.2084L59.6875 55.2084L71.25 45.2084L56.0416 43.8542L50 29.6875L43.9583 43.75L28.75 45.1042L40.3125 55.2084L36.875 70.1042ZM50 71.9792L32.7083 82.3959C31.9444 82.882 31.1458 83.0903 30.3125 83.0209C29.4791 82.9514 28.75 82.6736 28.125 82.1875C27.5 81.7014 27.0139 81.0938 26.6666 80.3646C26.3194 79.6355 26.25 78.8195 26.4583 77.9167L31.0416 58.2292L15.7291 45C15.0347 44.375 14.6007 43.6632 14.4271 42.8646C14.2535 42.066 14.3055 41.2848 14.5833 40.5209C14.8611 39.757 15.2778 39.132 15.8333 38.6459C16.3889 38.1598 17.1528 37.8473 18.125 37.7084L38.3333 35.9375L46.1458 17.3959C46.493 16.5625 47.0312 15.9375 47.7604 15.5209C48.4896 15.1042 49.2361 14.8959 50 14.8959C50.7639 14.8959 51.5104 15.1042 52.2396 15.5209C52.9687 15.9375 53.5069 16.5625 53.8541 17.3959L61.6666 35.9375L81.875 37.7084C82.8472 37.8473 83.6111 38.1598 84.1666 38.6459C84.7222 39.132 85.1389 39.757 85.4166 40.5209C85.6944 41.2848 85.7465 42.066 85.5729 42.8646C85.3993 43.6632 84.9653 44.375 84.2708 45L68.9583 58.2292L73.5416 77.9167C73.75 78.8195 73.6805 79.6355 73.3333 80.3646C72.9861 81.0938 72.5 81.7014 71.875 82.1875C71.25 82.6736 70.5208 82.9514 69.6875 83.0209C68.8541 83.0903 68.0555 82.882 67.2916 82.3959L50 71.9792Z" fill="#040500"/>
</svg>
