<svg width="100" height="100" viewBox="0 0 100 100" fill="none" xmlns="http://www.w3.org/2000/svg">
<path d="M33.3333 79.1667C32.1528 79.1667 31.1632 78.7674 30.3646 77.9688C29.566 77.1701 29.1667 76.1806 29.1667 75C29.1667 73.8194 29.566 72.8299 30.3646 72.0312C31.1632 71.2326 32.1528 70.8333 33.3333 70.8333H58.75C63.125 70.8333 66.9271 69.4444 70.1563 66.6667C73.3854 63.8889 75 60.4167 75 56.25C75 52.0833 73.3854 48.6111 70.1563 45.8333C66.9271 43.0556 63.125 41.6667 58.75 41.6667H32.5L40.4167 49.5833C41.1806 50.3472 41.5625 51.3194 41.5625 52.5C41.5625 53.6806 41.1806 54.6528 40.4167 55.4167C39.6528 56.1806 38.6806 56.5625 37.5 56.5625C36.3194 56.5625 35.3472 56.1806 34.5833 55.4167L19.5833 40.4167C19.1667 40 18.8715 39.5486 18.6979 39.0625C18.5243 38.5764 18.4375 38.0556 18.4375 37.5C18.4375 36.9444 18.5243 36.4236 18.6979 35.9375C18.8715 35.4514 19.1667 35 19.5833 34.5833L34.5833 19.5833C35.3472 18.8194 36.3194 18.4375 37.5 18.4375C38.6806 18.4375 39.6528 18.8194 40.4167 19.5833C41.1806 20.3472 41.5625 21.3194 41.5625 22.5C41.5625 23.6806 41.1806 24.6528 40.4167 25.4167L32.5 33.3333H58.75C65.4861 33.3333 71.2674 35.5208 76.0938 39.8958C80.9201 44.2708 83.3333 49.7222 83.3333 56.25C83.3333 62.7778 80.9201 68.2292 76.0938 72.6042C71.2674 76.9792 65.4861 79.1667 58.75 79.1667H33.3333Z" fill="#040500"/>
</svg>
