<svg width="100" height="100" viewBox="0 0 100 100" fill="none" xmlns="http://www.w3.org/2000/svg">
<path d="M25 83.3333C22.7083 83.3333 20.7465 82.5174 19.1145 80.8854C17.4826 79.2535 16.6666 77.2917 16.6666 75V66.6667C16.6666 65.4861 17.0659 64.4965 17.8645 63.6979C18.6632 62.8993 19.6527 62.5 20.8333 62.5C22.0138 62.5 23.0034 62.8993 23.802 63.6979C24.6007 64.4965 25 65.4861 25 66.6667V75H75V66.6667C75 65.4861 75.3993 64.4965 76.1979 63.6979C76.9965 62.8993 77.9861 62.5 79.1666 62.5C80.3472 62.5 81.3368 62.8993 82.1354 63.6979C82.934 64.4965 83.3333 65.4861 83.3333 66.6667V75C83.3333 77.2917 82.5173 79.2535 80.8854 80.8854C79.2534 82.5174 77.2916 83.3333 75 83.3333H25ZM45.8333 32.7083L38.0208 40.5208C37.1875 41.3542 36.1979 41.7535 35.052 41.7188C33.9062 41.684 32.9166 41.25 32.0833 40.4167C31.3194 39.5833 30.9201 38.6111 30.8854 37.5C30.8507 36.3889 31.25 35.4167 32.0833 34.5833L47.0833 19.5833C47.5 19.1667 47.9513 18.8715 48.4375 18.6979C48.9236 18.5243 49.4444 18.4375 50 18.4375C50.5555 18.4375 51.0763 18.5243 51.5625 18.6979C52.0486 18.8715 52.5 19.1667 52.9166 19.5833L67.9166 34.5833C68.75 35.4167 69.1493 36.3889 69.1145 37.5C69.0798 38.6111 68.6805 39.5833 67.9166 40.4167C67.0833 41.25 66.0937 41.684 64.9479 41.7188C63.802 41.7535 62.8125 41.3542 61.9791 40.5208L54.1666 32.7083V62.5C54.1666 63.6806 53.7673 64.6701 52.9687 65.4688C52.1701 66.2674 51.1805 66.6667 50 66.6667C48.8194 66.6667 47.8298 66.2674 47.0312 65.4688C46.2326 64.6701 45.8333 63.6806 45.8333 62.5V32.7083Z" fill="#040500"/>
</svg>
