<svg width="84" height="67" viewBox="0 0 84 67" fill="none" xmlns="http://www.w3.org/2000/svg">
<path d="M8.33333 66.6667C6.04167 66.6667 4.07986 65.8507 2.44792 64.2188C0.815972 62.5868 0 60.625 0 58.3333V8.33333C0 6.04167 0.815972 4.07986 2.44792 2.44792C4.07986 0.815972 6.04167 0 8.33333 0H75C77.2917 0 79.2535 0.815972 80.8854 2.44792C82.5174 4.07986 83.3333 6.04167 83.3333 8.33333V58.3333C83.3333 60.625 82.5174 62.5868 80.8854 64.2188C79.2535 65.8507 77.2917 66.6667 75 66.6667H8.33333ZM75 16.6667L43.8542 36.1458C43.5069 36.3542 43.1424 36.5104 42.7604 36.6146C42.3785 36.7188 42.0139 36.7708 41.6667 36.7708C41.3194 36.7708 40.9549 36.7188 40.5729 36.6146C40.191 36.5104 39.8264 36.3542 39.4792 36.1458L8.33333 16.6667V58.3333H75V16.6667ZM41.6667 29.1667L75 8.33333H8.33333L41.6667 29.1667ZM8.33333 17.7083V11.5625V11.6667V11.6146V17.7083Z" fill="#040500"/>
</svg>
