<svg width="100" height="100" viewBox="0 0 100 100" fill="none" xmlns="http://www.w3.org/2000/svg">
<path d="M42.8125 66.6666L66.0417 51.7708C66.6667 51.3541 66.9792 50.7638 66.9792 50C66.9792 49.2361 66.6667 48.6458 66.0417 48.2291L42.8125 33.3333C42.1181 32.8472 41.4063 32.8125 40.6771 33.2291C39.948 33.6458 39.5834 34.2708 39.5834 35.1041V64.8958C39.5834 65.7291 39.948 66.3541 40.6771 66.7708C41.4063 67.1875 42.1181 67.1527 42.8125 66.6666ZM16.6667 83.3333C14.375 83.3333 12.4132 82.5173 10.7813 80.8854C9.14935 79.2534 8.33337 77.2916 8.33337 75V25C8.33337 22.7083 9.14935 20.7465 10.7813 19.1145C12.4132 17.4826 14.375 16.6666 16.6667 16.6666H83.3334C85.625 16.6666 87.5869 17.4826 89.2188 19.1145C90.8507 20.7465 91.6667 22.7083 91.6667 25V75C91.6667 77.2916 90.8507 79.2534 89.2188 80.8854C87.5869 82.5173 85.625 83.3333 83.3334 83.3333H16.6667ZM16.6667 75H83.3334V25H16.6667V75Z" fill="#040500"/>
</svg>
