<svg width="100" height="100" viewBox="0 0 100 100" fill="none" xmlns="http://www.w3.org/2000/svg">
<path d="M33.125 87.5C27.4306 87.5 22.5694 85.4861 18.5417 81.4583C14.5139 77.4306 12.5 72.5694 12.5 66.875C12.5 64.0972 13.0208 61.4583 14.0625 58.9583C15.1042 56.4583 16.5972 54.2361 18.5417 52.2917L29.4792 41.3542C30.3125 40.5208 31.3021 40.1042 32.4479 40.1042C33.5938 40.1042 34.5833 40.5208 35.4167 41.3542C36.25 42.1875 36.6667 43.1597 36.6667 44.2708C36.6667 45.3819 36.25 46.3542 35.4167 47.1875L24.375 58.2292C23.1944 59.4097 22.309 60.7465 21.7188 62.2396C21.1285 63.7326 20.8333 65.2778 20.8333 66.875C20.8333 70.2778 22.0312 73.1771 24.4271 75.5729C26.8229 77.9688 29.7222 79.1667 33.125 79.1667C34.7222 79.1667 36.2847 78.8715 37.8125 78.2812C39.3403 77.691 40.6944 76.8056 41.875 75.625L52.8125 64.5833C53.6458 63.8194 54.6181 63.4375 55.7292 63.4375C56.8403 63.4375 57.8125 63.8542 58.6458 64.6875C59.4792 65.5208 59.8958 66.4931 59.8958 67.6042C59.8958 68.7153 59.4792 69.6875 58.6458 70.5208L47.7083 81.4583C45.7639 83.4028 43.5417 84.8958 41.0417 85.9375C38.5417 86.9792 35.9028 87.5 33.125 87.5ZM38.3333 61.6667C37.5 60.8333 37.0833 59.8438 37.0833 58.6979C37.0833 57.5521 37.5 56.5625 38.3333 55.7292L55.7292 38.3333C56.5625 37.5 57.5521 37.0833 58.6979 37.0833C59.8438 37.0833 60.8333 37.5 61.6667 38.3333C62.5 39.1667 62.9167 40.1562 62.9167 41.3021C62.9167 42.4479 62.5 43.4375 61.6667 44.2708L44.2708 61.6667C43.4375 62.5 42.4479 62.9167 41.3021 62.9167C40.1563 62.9167 39.1667 62.5 38.3333 61.6667ZM64.5833 58.6458C63.75 57.8125 63.3333 56.8403 63.3333 55.7292C63.3333 54.6181 63.75 53.6458 64.5833 52.8125L75.625 41.875C76.8056 40.6944 77.6736 39.375 78.2292 37.9167C78.7847 36.4583 79.0625 34.9306 79.0625 33.3333C79.0625 29.8611 77.882 26.9097 75.5208 24.4792C73.1597 22.0486 70.2431 20.8333 66.7708 20.8333C65.1736 20.8333 63.6285 21.1285 62.1354 21.7188C60.6424 22.309 59.3056 23.1944 58.125 24.375L47.1875 35.4167C46.3542 36.25 45.3819 36.6667 44.2708 36.6667C43.1597 36.6667 42.1875 36.25 41.3542 35.4167C40.5208 34.5833 40.1042 33.5938 40.1042 32.4479C40.1042 31.3021 40.5208 30.3125 41.3542 29.4792L52.2917 18.5417C54.2361 16.5972 56.4583 15.1042 58.9583 14.0625C61.4583 13.0208 64.0972 12.5 66.875 12.5C72.5694 12.5 77.4132 14.5139 81.4062 18.5417C85.3993 22.5694 87.3958 27.4653 87.3958 33.2292C87.3958 35.9375 86.8924 38.5417 85.8854 41.0417C84.8785 43.5417 83.4028 45.7639 81.4583 47.7083L70.5208 58.6458C69.6875 59.4792 68.6979 59.8958 67.5521 59.8958C66.4063 59.8958 65.4167 59.4792 64.5833 58.6458Z" fill="#040500"/>
</svg>
